#N canvas 827 239 527 327 12;
#X obj 12 65 circle 127 -1 1 -1 1 1 255 255 255 255 255 255 0 0 0 1 0 0 0.015748 -0.015748 empty empty empty empty 1;
#X obj 278 65 circle 127 -1 1 -1 1 1 0 -1 -1 0 -1 -1 1 -1 -1 1 0 0 0.6 0.6 empty empty empty empty empty;
#X obj 12 286 s m;
#X text 88 377 thresholding?;
#X text 87 407 continuous?;
#X text 12 16 Motion vectors;
#X obj 278 1 loadbang;
#X obj 278 197 display;
#X obj 424 65 circle 127 -1 1 -1 1 1 0 -1 -1 0 -1 -1 1 -1 -1 1 0 0 -0.6 0.6 empty empty empty empty empty;
#X obj 424 197 display;
#X obj 569 65 circle 127 -1 1 -1 1 1 0 -1 -1 0 -1 -1 1 -1 -1 1 0 0 -0.6 -0.6 empty empty empty empty empty;
#X obj 569 197 display;
#X obj 716 65 circle 127 -1 1 -1 1 1 0 -1 -1 0 -1 -1 1 -1 -1 1 0 0 0.6 -0.6 empty empty empty empty empty;
#X obj 716 197 display;
#X obj 13 -148 r p1;
#X obj 113 -148 r p2;
#X obj 12 -6 pack f f;
#X msg 368 197 45;
#X obj 293 -146 pack f f;
#X obj 293 -117 line;
#X obj 303 -175 r ramptime;
#X obj 408 -175 r ramptime;
#X obj 394 -146 pack f f;
#X obj 394 -117 line;
#X obj 12 -43 line;
#X obj 113 -43 line;
#X msg 113 -81 \$1 100;
#X msg 424 30 -0.6 0.6;
#X msg 569 30 -0.6 -0.6;
#X msg 716 30 0.6 -0.6;
#X text 278 -29 Trigger vectors;
#X obj -133 197 display;
#X obj 394 -33 bng 25 250 50 0 empty empty empty 17 7 0 10 #191919 #ffffff #ffffff;
#X obj 12 212 vector_normalize;
#X obj 69 249 s vab;
#X obj 278 325 spatial_trigger;
#X obj 230 197 r m;
#X obj 230 219 r vab;
#X obj 128 249 display;
#X msg 278 30 0.6 0.6;
#X obj 278 410 out~;
#X obj 424 325 spatial_trigger;
#X obj 573 325 spatial_trigger;
#X obj 716 325 spatial_trigger;
#X msg 520 197 52;
#X msg 665 197 49;
#X msg 815 197 57;
#X obj -88 241 display;
#X msg 12 -81 \$1 100;
#X obj 13 -110 * 0.5;
#X obj 113 -110 * 0.5;
#X msg 716 -38 500 2000;
#X msg 541 -38 200 200 0.5 500 200;
#X obj 862 65 circle 127 -1 1 -1 1 1 0 -1 -1 0 -1 -1 1 -1 -1 1 0 0 0 1 empty empty empty empty empty;
#X obj 1010 65 circle 127 -1 1 -1 1 1 0 -1 -1 0 -1 -1 1 -1 -1 1 0 0 1 0 empty empty empty empty empty;
#X obj 1155 65 circle 127 -1 1 -1 1 1 0 -1 -1 0 -1 -1 1 -1 -1 1 0 0 0 -1 empty empty empty empty empty;
#X obj 1302 65 circle 127 -1 1 -1 1 1 0 -1 -1 0 -1 -1 1 -1 -1 1 0 0 -1 0 empty empty empty empty empty;
#X msg 862 30 0 1;
#X msg 1008 30 1 0;
#X msg 1153 30 0 -1;
#X msg 1300 30 -1 0;
#X obj 862 197 display;
#X obj 1008 197 display;
#X obj 1153 197 display;
#X obj 1300 197 display;
#X msg 952 197 59;
#X msg 1104 197 60;
#X msg 1249 197 62;
#X msg 1399 197 64;
#X obj 862 325 spatial_trigger;
#X obj 1008 325 spatial_trigger;
#X obj 1157 325 spatial_trigger;
#X obj 1300 325 spatial_trigger;
#X connect 0 0 33 0;
#X connect 0 0 31 0;
#X connect 1 0 7 0;
#X connect 6 0 39 0;
#X connect 6 0 17 0;
#X connect 6 0 27 0;
#X connect 6 0 28 0;
#X connect 6 0 29 0;
#X connect 6 0 44 0;
#X connect 6 0 45 0;
#X connect 6 0 46 0;
#X connect 7 0 35 2;
#X connect 8 0 9 0;
#X connect 9 0 41 2;
#X connect 10 0 11 0;
#X connect 11 0 42 2;
#X connect 12 0 13 0;
#X connect 13 0 43 2;
#X connect 14 0 49 0;
#X connect 15 0 50 0;
#X connect 16 0 0 0;
#X connect 17 0 35 3;
#X connect 18 0 19 0;
#X connect 20 0 18 1;
#X connect 21 0 22 1;
#X connect 22 0 23 0;
#X connect 24 0 16 0;
#X connect 25 0 16 1;
#X connect 26 0 25 0;
#X connect 27 0 8 0;
#X connect 28 0 10 0;
#X connect 29 0 12 0;
#X connect 32 0 39 0;
#X connect 32 0 17 0;
#X connect 32 0 27 0;
#X connect 32 0 28 0;
#X connect 32 0 29 0;
#X connect 32 0 44 0;
#X connect 32 0 45 0;
#X connect 32 0 46 0;
#X connect 32 0 52 0;
#X connect 32 0 51 0;
#X connect 32 0 57 0;
#X connect 32 0 58 0;
#X connect 32 0 59 0;
#X connect 32 0 60 0;
#X connect 32 0 65 0;
#X connect 32 0 66 0;
#X connect 32 0 67 0;
#X connect 32 0 68 0;
#X connect 33 0 47 0;
#X connect 33 0 2 0;
#X connect 33 1 34 0;
#X connect 33 1 38 0;
#X connect 35 0 40 0;
#X connect 35 1 40 1;
#X connect 36 0 35 0;
#X connect 36 0 41 0;
#X connect 36 0 42 0;
#X connect 36 0 43 0;
#X connect 36 0 69 0;
#X connect 36 0 70 0;
#X connect 36 0 71 0;
#X connect 36 0 72 0;
#X connect 37 0 35 1;
#X connect 37 0 41 1;
#X connect 37 0 42 1;
#X connect 37 0 43 1;
#X connect 37 0 69 1;
#X connect 37 0 70 1;
#X connect 37 0 71 1;
#X connect 37 0 72 1;
#X connect 39 0 1 0;
#X connect 41 0 40 0;
#X connect 41 1 40 1;
#X connect 42 0 40 0;
#X connect 42 1 40 1;
#X connect 43 0 40 0;
#X connect 43 1 40 1;
#X connect 44 0 41 3;
#X connect 45 0 42 3;
#X connect 46 0 43 3;
#X connect 48 0 24 0;
#X connect 49 0 48 0;
#X connect 50 0 26 0;
#X connect 51 0 35 5;
#X connect 51 0 41 5;
#X connect 51 0 42 5;
#X connect 51 0 43 5;
#X connect 51 0 69 5;
#X connect 51 0 70 5;
#X connect 51 0 71 5;
#X connect 51 0 72 5;
#X connect 52 0 35 4;
#X connect 52 0 41 4;
#X connect 52 0 42 4;
#X connect 52 0 43 4;
#X connect 52 0 69 4;
#X connect 52 0 70 4;
#X connect 52 0 71 4;
#X connect 52 0 72 4;
#X connect 53 0 61 0;
#X connect 54 0 62 0;
#X connect 55 0 63 0;
#X connect 56 0 64 0;
#X connect 57 0 53 0;
#X connect 58 0 54 0;
#X connect 59 0 55 0;
#X connect 60 0 56 0;
#X connect 61 0 69 2;
#X connect 62 0 70 2;
#X connect 63 0 71 2;
#X connect 64 0 72 2;
#X connect 65 0 69 3;
#X connect 66 0 70 3;
#X connect 67 0 71 3;
#X connect 68 0 72 3;
#X connect 69 0 40 0;
#X connect 69 1 40 1;
#X connect 70 0 40 0;
#X connect 70 1 40 1;
#X connect 71 0 40 0;
#X connect 71 1 40 1;
#X connect 72 0 40 0;
#X connect 72 1 40 1;
