#N struct 1024-point float x0 float y0 float size float fg float in float grid;
#N struct 1044-point float x0 float y0 float size float fg float in float grid;
#N struct 1074-point float x0 float y0 float size float fg float in float grid;
#N struct 1097-point float x0 float y0 float size float fg float in float grid;
#N struct 1119-point float x0 float y0 float size float fg float in float grid;
#N canvas 827 239 527 327 12;
#X obj 12 49 circle 127 -1 1 -1 1 1 255 255 255 255 255 255 0 0 0 1 0 0 -1.03127 0.0230485 empty empty 1;
#X obj 278 65 circle 127 -1 1 -1 1 1 255 255 255 255 255 255 0 0 0 1 0 0 0.6 0.6 empty empty 1;
#N canvas 0 50 450 300 normalize_vector 0;
#X obj 397 102 display;
#X obj 143 153 expr sqrt(pow($f1 \, 2) + pow($f2 \, 2));
#X obj 147 183 display;
#X text 147 121 magnitude of v;
#X obj 393 153 unpack f f;
#X obj 268 255 /;
#X obj 334 254 /;
#X text 422 101 vector v;
#X obj 271 295 display;
#X obj 294 295 display;
#X obj 393 75 inlet;
#X obj 239 336 outlet;
#X obj 294 336 outlet;
#X obj 147 336 outlet;
#X text 242 364 normalized v components;
#X text 147 364 magnitude;
#X connect 0 0 1 0;
#X connect 0 0 4 0;
#X connect 1 0 2 0;
#X connect 2 0 5 1;
#X connect 2 0 6 1;
#X connect 2 0 13 0;
#X connect 4 0 5 0;
#X connect 4 1 6 0;
#X connect 5 0 8 0;
#X connect 6 0 9 0;
#X connect 8 0 11 0;
#X connect 9 0 12 0;
#X connect 10 0 0 0;
#X restore 12 196 pd normalize_vector;
#X obj 12 225 s m;
#X obj 70 225 s va;
#X obj 127 225 s vb;
#X text 88 377 thresholding?;
#X text 87 407 continuous?;
#X text 12 16 Motion vectors;
#X obj 278 1 loadbang;
#X obj 278 197 display;
#X msg 278 30 0.6 0.6;
#X obj 424 65 circle 127 -1 1 -1 1 1 255 255 255 255 255 255 0 0 0 1 0 0 -0.6 0.6 empty empty 1;
#X obj 267 303 out~;
#X obj 424 197 display;
#X obj 569 65 circle 127 -1 1 -1 1 1 255 255 255 255 255 255 0 0 0 1 0 0 -0.6 -0.6 empty empty 1;
#X obj 569 197 display;
#X obj 716 65 circle 127 -1 1 -1 1 1 255 255 255 255 255 255 0 0 0 1 0 0 0.6 -0.6 empty empty 1;
#X obj 716 197 display;
#X obj 13 -148 r p1;
#X obj 113 -148 r p2;
#X obj 12 -6 pack f f;
#N canvas 0 50 450 300 trigger 1;
#X obj 329 652 cos~;
#X obj 279 652 sin~;
#N canvas 0 50 450 300 scaled_dot_product 1;
#X obj 189 175 expr $f1*$f3 + $f2*$f4;
#X obj 193 209 display;
#X text 363 174 dot product v . u;
#X obj 189 252 *;
#X text 214 295 dot product times magnitude;
#X obj 193 296 display;
#N canvas 0 50 450 300 normalize_vector 0;
#X obj 397 102 display;
#X obj 143 153 expr sqrt(pow($f1 \, 2) + pow($f2 \, 2));
#X obj 147 183 display;
#X text 147 121 magnitude of v;
#X obj 393 153 unpack f f;
#X obj 268 255 /;
#X obj 334 254 /;
#X text 422 101 vector v;
#X obj 271 295 display;
#X obj 294 295 display;
#X obj 393 75 inlet;
#X obj 239 336 outlet;
#X obj 294 336 outlet;
#X obj 147 336 outlet;
#X text 242 364 normalized v components;
#X text 147 364 magnitude;
#X connect 0 0 1 0;
#X connect 0 0 4 0;
#X connect 1 0 2 0;
#X connect 2 0 5 1;
#X connect 2 0 6 1;
#X connect 2 0 13 0;
#X connect 4 0 5 0;
#X connect 4 1 6 0;
#X connect 5 0 8 0;
#X connect 6 0 9 0;
#X connect 8 0 11 0;
#X connect 9 0 12 0;
#X connect 10 0 0 0;
#X restore 205 90 pd normalize_vector;
#X obj 115 119 r va;
#X obj 156 119 r vb;
#X obj 115 209 r m;
#X obj 205 43 inlet;
#X text 254 20 input vector 'u';
#X text 254 40 fixed object;
#X text 8 108 from sensor;
#X text 8 86 input vector 'v';
#X text 8 208 'v' magnitude;
#X obj 189 330 outlet;
#X connect 0 0 1 0;
#X connect 1 0 3 0;
#X connect 3 0 5 0;
#X connect 5 0 16 0;
#X connect 6 1 0 2;
#X connect 6 2 0 3;
#X connect 7 0 0 0;
#X connect 8 0 0 1;
#X connect 9 0 3 1;
#X connect 10 0 6 0;
#X restore 245 337 pd scaled_dot_product;
#X obj 353 592 phasor~;
#X obj 468 484 mtof;
#X floatatom 468 454 5 0 0 0 - - - 12;
#X floatatom 468 515 5 0 0 0 - - - 12;
#X obj 245 366 display;
#X obj 245 454 spigot;
#X obj 271 426 > 0;
#X obj 278 696 *~;
#X obj 329 696 *~;
#X obj 245 286 inlet;
#X text 250 263 trigger vector;
#X obj 278 861 outlet~;
#X obj 340 861 outlet~;
#X obj 468 286 inlet;
#X text 468 263 fundamental;
#X text 557 263 ADSR;
#X obj 245 493 sig~;
#X obj 557 286 inlet;
#X obj 557 315 unpack f f f f;
#X obj 252 557 adsr~ 250 1000 0.8 2000;
#X obj 245 396 * 100;
#X text 133 395 directional gain;
#X connect 0 0 11 0;
#X connect 1 0 10 0;
#X connect 2 0 7 0;
#X connect 3 0 1 0;
#X connect 3 0 0 0;
#X connect 4 0 6 0;
#X connect 5 0 4 0;
#X connect 6 0 3 0;
#X connect 7 0 23 0;
#X connect 8 0 19 0;
#X connect 9 0 8 1;
#X connect 10 0 14 0;
#X connect 11 0 15 0;
#X connect 12 0 2 0;
#X connect 16 0 5 0;
#X connect 19 0 22 0;
#X connect 20 0 21 0;
#X connect 21 0 22 2;
#X connect 21 1 22 3;
#X connect 21 2 22 4;
#X connect 21 3 22 5;
#X connect 22 0 10 1;
#X connect 22 0 11 1;
#X connect 23 0 9 0;
#X connect 23 0 8 0;
#X restore 278 241 pd trigger;
#X msg 368 197 45;
#X msg 520 197 47;
#X obj 293 -146 pack f f;
#X obj 293 -117 line;
#X obj 303 -175 r ramptime;
#X obj 408 -175 r ramptime;
#X obj 394 -146 pack f f;
#X obj 394 -117 line;
#X obj 12 -43 line;
#X obj 113 -43 line;
#X msg 12 -81 \$1 100;
#X msg 113 -81 \$1 100;
#X msg 665 197 52;
#X obj 13 -110 * 0.01;
#X obj 113 -110 * 0.001;
#N canvas 0 50 450 300 trigger 0;
#X obj 329 652 cos~;
#X obj 279 652 sin~;
#N canvas 0 50 450 300 scaled_dot_product 0;
#X obj 189 175 expr $f1*$f3 + $f2*$f4;
#X obj 193 209 display;
#X text 363 174 dot product v . u;
#X obj 189 252 *;
#X text 214 295 dot product times magnitude;
#X obj 193 296 display;
#N canvas 0 50 450 300 normalize_vector 0;
#X obj 397 102 display;
#X obj 143 153 expr sqrt(pow($f1 \, 2) + pow($f2 \, 2));
#X obj 147 183 display;
#X text 147 121 magnitude of v;
#X obj 393 153 unpack f f;
#X obj 268 255 /;
#X obj 334 254 /;
#X text 422 101 vector v;
#X obj 271 295 display;
#X obj 294 295 display;
#X obj 393 75 inlet;
#X obj 239 336 outlet;
#X obj 294 336 outlet;
#X obj 147 336 outlet;
#X text 242 364 normalized v components;
#X text 147 364 magnitude;
#X connect 0 0 1 0;
#X connect 0 0 4 0;
#X connect 1 0 2 0;
#X connect 2 0 5 1;
#X connect 2 0 6 1;
#X connect 2 0 13 0;
#X connect 4 0 5 0;
#X connect 4 1 6 0;
#X connect 5 0 8 0;
#X connect 6 0 9 0;
#X connect 8 0 11 0;
#X connect 9 0 12 0;
#X connect 10 0 0 0;
#X restore 205 90 pd normalize_vector;
#X obj 115 119 r va;
#X obj 156 119 r vb;
#X obj 115 209 r m;
#X obj 205 43 inlet;
#X text 254 20 input vector 'u';
#X text 254 40 fixed object;
#X text 8 108 from sensor;
#X text 8 86 input vector 'v';
#X text 8 208 'v' magnitude;
#X obj 189 330 outlet;
#X connect 0 0 1 0;
#X connect 1 0 3 0;
#X connect 3 0 5 0;
#X connect 5 0 16 0;
#X connect 6 1 0 2;
#X connect 6 2 0 3;
#X connect 7 0 0 0;
#X connect 8 0 0 1;
#X connect 9 0 3 1;
#X connect 10 0 6 0;
#X restore 245 337 pd scaled_dot_product;
#X obj 353 592 phasor~;
#X obj 468 484 mtof;
#X floatatom 468 454 5 0 0 0 - - - 12;
#X floatatom 468 515 5 0 0 0 - - - 12;
#X obj 245 366 display;
#X obj 245 454 spigot;
#X obj 271 426 > 0;
#X obj 278 696 *~;
#X obj 329 696 *~;
#X obj 245 286 inlet;
#X text 250 263 trigger vector;
#X obj 278 861 outlet~;
#X obj 340 861 outlet~;
#X obj 468 286 inlet;
#X text 468 263 fundamental;
#X text 557 263 ADSR;
#X obj 245 493 sig~;
#X obj 557 286 inlet;
#X obj 557 315 unpack f f f f;
#X obj 252 557 adsr~ 250 1000 0.8 2000;
#X obj 245 396 * 100;
#X text 133 395 directional gain;
#X connect 0 0 11 0;
#X connect 1 0 10 0;
#X connect 2 0 7 0;
#X connect 3 0 1 0;
#X connect 3 0 0 0;
#X connect 4 0 6 0;
#X connect 5 0 4 0;
#X connect 6 0 3 0;
#X connect 7 0 23 0;
#X connect 8 0 19 0;
#X connect 9 0 8 1;
#X connect 10 0 14 0;
#X connect 11 0 15 0;
#X connect 12 0 2 0;
#X connect 16 0 5 0;
#X connect 19 0 22 0;
#X connect 20 0 21 0;
#X connect 21 0 22 2;
#X connect 21 1 22 3;
#X connect 21 2 22 4;
#X connect 21 3 22 5;
#X connect 22 0 10 1;
#X connect 22 0 11 1;
#X connect 23 0 9 0;
#X connect 23 0 8 0;
#X restore 424 241 pd trigger;
#N canvas 0 50 450 300 trigger 0;
#X obj 329 652 cos~;
#X obj 279 652 sin~;
#N canvas 0 50 450 300 scaled_dot_product 0;
#X obj 189 175 expr $f1*$f3 + $f2*$f4;
#X obj 193 209 display;
#X text 363 174 dot product v . u;
#X obj 189 252 *;
#X text 214 295 dot product times magnitude;
#X obj 193 296 display;
#N canvas 0 50 450 300 normalize_vector 0;
#X obj 397 102 display;
#X obj 143 153 expr sqrt(pow($f1 \, 2) + pow($f2 \, 2));
#X obj 147 183 display;
#X text 147 121 magnitude of v;
#X obj 393 153 unpack f f;
#X obj 268 255 /;
#X obj 334 254 /;
#X text 422 101 vector v;
#X obj 271 295 display;
#X obj 294 295 display;
#X obj 393 75 inlet;
#X obj 239 336 outlet;
#X obj 294 336 outlet;
#X obj 147 336 outlet;
#X text 242 364 normalized v components;
#X text 147 364 magnitude;
#X connect 0 0 1 0;
#X connect 0 0 4 0;
#X connect 1 0 2 0;
#X connect 2 0 5 1;
#X connect 2 0 6 1;
#X connect 2 0 13 0;
#X connect 4 0 5 0;
#X connect 4 1 6 0;
#X connect 5 0 8 0;
#X connect 6 0 9 0;
#X connect 8 0 11 0;
#X connect 9 0 12 0;
#X connect 10 0 0 0;
#X restore 205 90 pd normalize_vector;
#X obj 115 119 r va;
#X obj 156 119 r vb;
#X obj 115 209 r m;
#X obj 205 43 inlet;
#X text 254 20 input vector 'u';
#X text 254 40 fixed object;
#X text 8 108 from sensor;
#X text 8 86 input vector 'v';
#X text 8 208 'v' magnitude;
#X obj 189 330 outlet;
#X connect 0 0 1 0;
#X connect 1 0 3 0;
#X connect 3 0 5 0;
#X connect 5 0 16 0;
#X connect 6 1 0 2;
#X connect 6 2 0 3;
#X connect 7 0 0 0;
#X connect 8 0 0 1;
#X connect 9 0 3 1;
#X connect 10 0 6 0;
#X restore 245 337 pd scaled_dot_product;
#X obj 353 592 phasor~;
#X obj 468 484 mtof;
#X floatatom 468 454 5 0 0 0 - - - 12;
#X floatatom 468 515 5 0 0 0 - - - 12;
#X obj 245 366 display;
#X obj 245 454 spigot;
#X obj 271 426 > 0;
#X obj 278 696 *~;
#X obj 329 696 *~;
#X obj 245 286 inlet;
#X text 250 263 trigger vector;
#X obj 278 861 outlet~;
#X obj 340 861 outlet~;
#X obj 468 286 inlet;
#X text 468 263 fundamental;
#X text 557 263 ADSR;
#X obj 245 493 sig~;
#X obj 557 286 inlet;
#X obj 557 315 unpack f f f f;
#X obj 252 557 adsr~ 250 1000 0.8 2000;
#X obj 245 396 * 100;
#X text 133 395 directional gain;
#X connect 0 0 11 0;
#X connect 1 0 10 0;
#X connect 2 0 7 0;
#X connect 3 0 1 0;
#X connect 3 0 0 0;
#X connect 4 0 6 0;
#X connect 5 0 4 0;
#X connect 6 0 3 0;
#X connect 7 0 23 0;
#X connect 8 0 19 0;
#X connect 9 0 8 1;
#X connect 10 0 14 0;
#X connect 11 0 15 0;
#X connect 12 0 2 0;
#X connect 16 0 5 0;
#X connect 19 0 22 0;
#X connect 20 0 21 0;
#X connect 21 0 22 2;
#X connect 21 1 22 3;
#X connect 21 2 22 4;
#X connect 21 3 22 5;
#X connect 22 0 10 1;
#X connect 22 0 11 1;
#X connect 23 0 9 0;
#X connect 23 0 8 0;
#X restore 569 241 pd trigger;
#N canvas 0 50 450 300 trigger 0;
#X obj 329 652 cos~;
#X obj 279 652 sin~;
#N canvas 0 50 450 300 scaled_dot_product 0;
#X obj 189 175 expr $f1*$f3 + $f2*$f4;
#X obj 193 209 display;
#X text 363 174 dot product v . u;
#X obj 189 252 *;
#X text 214 295 dot product times magnitude;
#X obj 193 296 display;
#N canvas 0 50 450 300 normalize_vector 0;
#X obj 397 102 display;
#X obj 143 153 expr sqrt(pow($f1 \, 2) + pow($f2 \, 2));
#X obj 147 183 display;
#X text 147 121 magnitude of v;
#X obj 393 153 unpack f f;
#X obj 268 255 /;
#X obj 334 254 /;
#X text 422 101 vector v;
#X obj 271 295 display;
#X obj 294 295 display;
#X obj 393 75 inlet;
#X obj 239 336 outlet;
#X obj 294 336 outlet;
#X obj 147 336 outlet;
#X text 242 364 normalized v components;
#X text 147 364 magnitude;
#X connect 0 0 1 0;
#X connect 0 0 4 0;
#X connect 1 0 2 0;
#X connect 2 0 5 1;
#X connect 2 0 6 1;
#X connect 2 0 13 0;
#X connect 4 0 5 0;
#X connect 4 1 6 0;
#X connect 5 0 8 0;
#X connect 6 0 9 0;
#X connect 8 0 11 0;
#X connect 9 0 12 0;
#X connect 10 0 0 0;
#X restore 205 90 pd normalize_vector;
#X obj 115 119 r va;
#X obj 156 119 r vb;
#X obj 115 209 r m;
#X obj 205 43 inlet;
#X text 254 20 input vector 'u';
#X text 254 40 fixed object;
#X text 8 108 from sensor;
#X text 8 86 input vector 'v';
#X text 8 208 'v' magnitude;
#X obj 189 330 outlet;
#X connect 0 0 1 0;
#X connect 1 0 3 0;
#X connect 3 0 5 0;
#X connect 5 0 16 0;
#X connect 6 1 0 2;
#X connect 6 2 0 3;
#X connect 7 0 0 0;
#X connect 8 0 0 1;
#X connect 9 0 3 1;
#X connect 10 0 6 0;
#X restore 245 337 pd scaled_dot_product;
#X obj 353 592 phasor~;
#X obj 468 484 mtof;
#X floatatom 468 454 5 0 0 0 - - - 12;
#X floatatom 468 515 5 0 0 0 - - - 12;
#X obj 245 366 display;
#X obj 245 454 spigot;
#X obj 271 426 > 0;
#X obj 278 696 *~;
#X obj 329 696 *~;
#X obj 245 286 inlet;
#X text 250 263 trigger vector;
#X obj 278 861 outlet~;
#X obj 340 861 outlet~;
#X obj 468 286 inlet;
#X text 468 263 fundamental;
#X text 557 263 ADSR;
#X obj 245 493 sig~;
#X obj 557 286 inlet;
#X obj 557 315 unpack f f f f;
#X obj 252 557 adsr~ 250 1000 0.8 2000;
#X obj 245 396 * 100;
#X text 133 395 directional gain;
#X connect 0 0 11 0;
#X connect 1 0 10 0;
#X connect 2 0 7 0;
#X connect 3 0 1 0;
#X connect 3 0 0 0;
#X connect 4 0 6 0;
#X connect 5 0 4 0;
#X connect 6 0 3 0;
#X connect 7 0 23 0;
#X connect 8 0 19 0;
#X connect 9 0 8 1;
#X connect 10 0 14 0;
#X connect 11 0 15 0;
#X connect 12 0 2 0;
#X connect 16 0 5 0;
#X connect 19 0 22 0;
#X connect 20 0 21 0;
#X connect 21 0 22 2;
#X connect 21 1 22 3;
#X connect 21 2 22 4;
#X connect 21 3 22 5;
#X connect 22 0 10 1;
#X connect 22 0 11 1;
#X connect 23 0 9 0;
#X connect 23 0 8 0;
#X restore 716 241 pd trigger;
#X msg 424 30 -0.6 0.6;
#X msg 569 30 -0.6 -0.6;
#X msg 716 30 0.6 -0.6;
#X msg 815 197 56;
#X text 278 -29 Trigger vectors;
#X connect 0 0 2 0;
#X connect 1 0 10 0;
#X connect 2 0 3 0;
#X connect 2 1 4 0;
#X connect 2 2 5 0;
#X connect 9 0 11 0;
#X connect 9 0 23 0;
#X connect 9 0 41 0;
#X connect 9 0 42 0;
#X connect 9 0 43 0;
#X connect 9 0 24 0;
#X connect 9 0 35 0;
#X connect 9 0 44 0;
#X connect 10 0 22 0;
#X connect 11 0 1 0;
#X connect 12 0 14 0;
#X connect 14 0 38 0;
#X connect 15 0 16 0;
#X connect 16 0 39 0;
#X connect 17 0 18 0;
#X connect 18 0 40 0;
#X connect 19 0 36 0;
#X connect 20 0 37 0;
#X connect 21 0 0 0;
#X connect 22 0 13 0;
#X connect 22 1 13 1;
#X connect 23 0 22 1;
#X connect 24 0 38 1;
#X connect 25 0 26 0;
#X connect 27 0 25 1;
#X connect 28 0 29 1;
#X connect 29 0 30 0;
#X connect 31 0 21 0;
#X connect 32 0 21 1;
#X connect 33 0 31 0;
#X connect 34 0 32 0;
#X connect 35 0 39 1;
#X connect 36 0 33 0;
#X connect 37 0 34 0;
#X connect 38 0 13 0;
#X connect 38 1 13 1;
#X connect 39 0 13 0;
#X connect 39 1 13 1;
#X connect 40 0 13 0;
#X connect 40 1 13 1;
#X connect 41 0 12 0;
#X connect 42 0 15 0;
#X connect 43 0 17 0;
#X connect 44 0 40 1;
