#N canvas 827 239 527 327 12;
#X obj 247 114 r p3;
#X obj 308 114 r norm_acc;
#X obj 247 152 * 0.001;
#X obj 308 345 s ramptime;
#X obj 308 187 abs;
#X obj 308 230 /;
#X msg 264 210 10;
#X obj 313 279 log;
#X floatatom 378 279 23 0 0 0 - - - 8;
#X obj 313 308 * 100;
#X floatatom 378 308 20 0 0 0 - - - 8;
#X connect 0 0 2 0;
#X connect 1 0 4 0;
#X connect 4 0 5 1;
#X connect 4 0 6 0;
#X connect 5 0 7 0;
#X connect 6 0 5 0;
#X connect 7 0 8 0;
#X connect 7 0 9 0;
#X connect 9 0 10 0;
#X connect 9 0 3 0;
