#N canvas 827 239 527 327 12;
#X obj 342 96 bng 25 250 50 0 empty empty empty 17 7 0 10 #191919 #ffffff #ffffff;
#X obj 360 135 samplerate~;
#X obj 360 164 / 64;
#X obj 360 193 osc~;
#X obj 360 222 *~ -0.5;
#X obj 344 290 tabwrite~ hanning;
#X msg 457 134 0;
#X obj 360 251 +~ 0.5;
#N canvas 0 0 450 250 (subpatch) 0;
#X array hanning 64 float 2;
#X coords 0 1 64 0 200 140 1;
#X restore 123 141 graph;
#X floatatom 544 85 5 0 0 0 - - - 12;
#X obj 544 120 * 48000;
#X obj 544 149 / 64;
#X obj 544 15 loadbang;
#X obj 544 44 bng 25 250 50 0 empty empty empty 17 7 0 10 #191919 #ffffff #ffffff;
#X floatatom 544 178 5 0 0 0 - - - 12;
#X obj 544 205 osc~;
#X obj 544 318 rfft~;
#X obj 544 347 *~;
#X obj 594 347 *~;
#X obj 541 385 +~;
#X obj 541 414 sqrt~;
#X obj 541 443 print~;
#X obj 608 414 bng 35 250 50 0 empty empty empty 17 7 0 10 #191919 #ffffff #ffffff;
#X obj 543 247 *~;
#X obj 629 217 tabreceive~ hanning;
#X obj 257 381 setdsp~;
#N canvas 0 50 450 300 blockoverlap 1;
#X floatatom 246 227 5 0 0 0 - - - 12;
#X obj 246 262 * 48000;
#X obj 246 291 / 64;
#X obj 246 157 loadbang;
#X obj 246 186 bng 25 250 50 0 empty empty empty 17 7 0 10 #191919 #ffffff #ffffff;
#X floatatom 246 320 5 0 0 0 - - - 12;
#X obj 246 347 osc~;
#X obj 246 460 rfft~;
#X obj 246 489 *~;
#X obj 296 489 *~;
#X obj 243 527 +~;
#X obj 243 556 sqrt~;
#X obj 243 585 print~;
#X obj 310 556 bng 35 250 50 0 empty empty empty 17 7 0 10 #191919 #ffffff #ffffff;
#X obj 245 389 *~;
#X obj 331 359 tabreceive~ hanning;
#X obj 248 73 block~ 64 4;
#X msg 331 202 2.5;
#X connect 0 0 1 0;
#X connect 1 0 2 0;
#X connect 2 0 5 0;
#X connect 3 0 4 0;
#X connect 4 0 0 0;
#X connect 5 0 6 0;
#X connect 6 0 14 0;
#X connect 7 0 8 0;
#X connect 7 0 8 1;
#X connect 7 1 9 0;
#X connect 7 1 9 1;
#X connect 8 0 10 0;
#X connect 9 0 10 1;
#X connect 10 0 11 0;
#X connect 11 0 12 0;
#X connect 13 0 12 0;
#X connect 14 0 7 0;
#X connect 15 0 14 1;
#X connect 17 0 0 0;
#X restore 357 491 pd blockoverlap;
#X obj 806 23 noise~;
#N canvas 0 50 450 300 fft-analyze 1;
#X obj 190 48 block~ 512 4;
#X obj 193 99 inlet~;
#X obj 261 146 tabreceive~ hanning;
#X obj 193 174 *~;
#X obj 193 203 rfft~;
#X obj 194 351 *~;
#X obj 244 351 *~;
#X obj 299 215 tabreceive~ gain;
#X obj 299 244 *~;
#X obj 299 273 *~;
#X obj 194 399 rifft~;
#X obj 261 407 tabreceive~ hanning;
#X obj 193 448 *~;
#X obj 193 477 outlet~;
#X obj 299 302 /~ 512;
#X connect 1 0 3 0;
#X connect 2 0 3 1;
#X connect 3 0 4 0;
#X connect 4 0 5 0;
#X connect 4 1 6 0;
#X connect 5 0 10 0;
#X connect 7 0 8 0;
#X connect 7 0 8 1;
#X connect 8 0 9 0;
#X connect 8 0 9 1;
#X connect 9 0 14 0;
#X connect 10 0 12 0;
#X connect 11 0 12 1;
#X connect 12 0 13 0;
#X connect 14 0 5 1;
#X connect 14 0 6 1;
#X restore 806 52 pd fft-analyze;
#N canvas 0 0 450 250 (subpatch) 0;
#X array gain 256 float 2;
#X coords 0 1 256 0.01 200 140 1;
#X restore 806 205 graph;
#X obj 1058 24 spectrograph~;
#X obj 1058 178 spectrograph~;
#X obj 807 141 snapshot~;
#X floatatom 759 169 11 0 0 0 - - - 12;
#X obj 734 125 bng 25 250 50 0 empty empty empty 17 7 0 10 #191919 #ffffff #ffffff;
#X obj 886 364 out~;
#X obj 800 91 *~ 5;
#X connect 0 0 1 0;
#X connect 0 0 5 0;
#X connect 0 0 6 0;
#X connect 1 0 2 0;
#X connect 2 0 3 0;
#X connect 3 0 4 0;
#X connect 4 0 7 0;
#X connect 6 0 3 1;
#X connect 7 0 5 0;
#X connect 9 0 10 0;
#X connect 10 0 11 0;
#X connect 11 0 14 0;
#X connect 12 0 13 0;
#X connect 13 0 9 0;
#X connect 14 0 15 0;
#X connect 15 0 23 0;
#X connect 16 0 17 0;
#X connect 16 0 17 1;
#X connect 16 1 18 0;
#X connect 16 1 18 1;
#X connect 17 0 19 0;
#X connect 18 0 19 1;
#X connect 19 0 20 0;
#X connect 20 0 21 0;
#X connect 22 0 21 0;
#X connect 23 0 16 0;
#X connect 24 0 23 1;
#X connect 27 0 28 0;
#X connect 27 0 30 0;
#X connect 28 0 36 0;
#X connect 32 0 33 0;
#X connect 34 0 32 0;
#X connect 36 0 32 0;
#X connect 36 0 31 0;
#X connect 36 0 35 0;
