#N canvas 827 239 527 327 12;
#X obj 569 106 cnv 15 237 204 empty empty empty 20 12 0 14 #9e9de6 #5a5a5a 0;
#X obj 80 599 cnv 15 279 184 empty empty empty 20 12 0 14 #dbcfbe #5a5a5a 0;
#X obj 80 412 cnv 15 279 184 empty empty empty 20 12 0 14 #dbcfbe #5a5a5a 0;
#X obj 569 13 cnv 15 237 92 empty empty empty 20 12 0 14 #e6a0a0 #5a5a5a 0;
#X obj 80 149 cnv 15 174 190 empty empty empty 20 12 0 14 #a2d6c2 #5a5a5a 0;
#X obj 569 311 cnv 15 237 84 empty empty empty 20 12 0 14 #9ec6e6 #5a5a5a 0;
#X text 110 160 SENS;
#X obj 171 174 tgl 21 0 sens_acc sens_acc empty 0 -11 0 12 #a2d6c2 #000000 #000000 0 1;
#X text 590 117 NET, f 6;
#X text 194 173 acc;
#X text 194 199 gyr;
#X text 194 225 mag;
#X obj 171 200 tgl 21 0 sens_gyro sens_gyro empty 0 -11 0 12 #a2d6c2 #000000 #000000 0 1;
#X obj 171 226 tgl 21 0 sens_mag sens_mag empty 0 -11 0 12 #a2d6c2 #000000 #000000 0 1;
#X obj 90 201 tgl 21 0 sens_light empty empty 0 -11 0 12 #a2d6c2 #000000 #000000 0 1;
#X obj 90 227 tgl 21 0 sens_temp empty empty 0 -11 0 12 #a2d6c2 #000000 #000000 0 1;
#X text 113 200 light;
#X text 113 226 temp;
#X text 92 260 euler;
#X text 117 310 quat;
#X text 143 260 grav;
#X text 161 310 linacc;
#X obj 729 49 tgl 21 0 empty ble empty 0 -11 0 12 #e6a0a0 #000000 #000000 0 1;
#X text 593 28 RDY;
#X text 752 48 ble;
#X obj 729 77 tgl 21 0 empty dev empty 0 -11 0 12 #e6a0a0 #000000 #000000 0 1;
#X text 752 76 dev;
#X obj 729 21 tgl 21 0 empty conf empty 0 -11 0 12 #e6a0a0 #000000 #000000 0 1;
#X obj 665 21 bng 35 250 50 0 rdy stream empty 17 7 0 10 #e6a0a0 #5a5a5a #5a5a5a;
#X obj 97 117 r rdy, f 6;
#X obj 97 286 hradio 23 1 1 5 fusion fusion empty 0 -8 0 10 #a2d6c2 #5a5a5a #5a5a5a 1;
#X text 194 260 off;
#X obj 200 421 r fusion;
#X obj 86 567 s sens_acc;
#X obj 174 535 spigot;
#X floatatom 174 508 5 0 0 0 - - - 12;
#X obj 172 481 t b;
#X obj 174 567 s sens_gyro;
#X obj 267 567 s sens_mag;
#X obj 88 618 r sens_acc;
#X obj 177 618 r sens_gyro;
#X obj 271 618 r sens_mag;
#X obj 295 683 == 1;
#X obj 88 719 spigot;
#X obj 86 657 t b;
#X obj 88 751 s fusion;
#X floatatom 88 683 6 0 0 0 - - - 12;
#X obj 200 448 < 4;
#X text 228 475 if fusion modes are turned on \, shut off primary sensors, f 18;
#X text 225 718 if primary sensors are turned on \, shut of fusion modes, f 18;
#X obj 380 412 cnv 15 279 184 empty empty empty 20 12 0 14 #dbcfbe #5a5a5a 0;
#X obj 394 421 r rdy;
#X obj 482 448 r sens_acc;
#X obj 482 421 r fusion;
#X obj 569 448 r sens_light;
#X obj 569 472 r sens_temp;
#X obj 482 472 r sens_gyro;
#X obj 482 496 r sens_mag;
#X obj 398 533 configure;
#X obj 392 472 r port;
#X obj 390 455 r ip;
#X obj 395 494 r dev01;
#X obj 975 13 cnv 15 279 184 empty empty empty 20 12 0 14 #dbcfbe #5a5a5a 0;
#X text 752 20 conf;
#X msg 664 358 EC:47:49:CF:53:C4;
#X obj 1016 168 osc_netsend;
#X text 592 68 STREAM;
#X obj 1016 52 moses 0.5;
#X msg 1016 77 /start_stream 1;
#X text 590 140 receive, f 9;
#X obj 656 118 r rdy, f 6;
#X msg 717 192 localhost;
#X msg 734 168 12345;
#X obj 590 168 s port;
#X obj 590 192 s ip;
#X msg 689 271 192.168.4.100;
#X msg 741 247 8001;
#X text 592 219 send, f 9;
#X obj 590 247 s send_port;
#X obj 590 271 s send_ip;
#X obj 665 64 tgl 35 0 stream empty empty 17 7 0 10 #e3b4a5 #5a5a5a #5a5a5a 0 1;
#X obj 1016 116 r send_ip;
#X obj 1048 138 r send_port;
#X obj 1016 27 r stream;
#X msg 1119 77 /stop_stream 1;
#X obj 659 323 r rdy, f 6;
#X text 593 321 DEV01, f 8;
#X obj 585 358 s dev01;
#X connect 29 0 30 0;
#X connect 32 0 47 0;
#X connect 34 0 33 0;
#X connect 34 0 37 0;
#X connect 34 0 38 0;
#X connect 35 0 34 0;
#X connect 36 0 35 0;
#X connect 39 0 42 0;
#X connect 39 0 44 0;
#X connect 40 0 42 0;
#X connect 40 0 44 0;
#X connect 41 0 42 0;
#X connect 41 0 44 0;
#X connect 42 0 43 1;
#X connect 43 0 45 0;
#X connect 44 0 46 0;
#X connect 46 0 43 0;
#X connect 47 0 34 1;
#X connect 47 0 36 0;
#X connect 51 0 58 9;
#X connect 52 0 58 3;
#X connect 53 0 58 8;
#X connect 54 0 58 6;
#X connect 55 0 58 7;
#X connect 56 0 58 4;
#X connect 57 0 58 5;
#X connect 59 0 58 1;
#X connect 60 0 58 0;
#X connect 61 0 58 2;
#X connect 64 0 87 0;
#X connect 67 0 68 0;
#X connect 67 1 84 0;
#X connect 68 0 65 2;
#X connect 70 0 72 0;
#X connect 70 0 71 0;
#X connect 70 0 76 0;
#X connect 70 0 75 0;
#X connect 71 0 74 0;
#X connect 72 0 73 0;
#X connect 75 0 79 0;
#X connect 76 0 78 0;
#X connect 81 0 65 0;
#X connect 82 0 65 1;
#X connect 83 0 67 0;
#X connect 84 0 65 2;
#X connect 85 0 64 0;
