#N canvas 827 239 527 327 12;
#X text 85 37 configure;
#X obj 85 72 inlet;
#X obj 126 72 inlet;
#X obj 167 72 inlet;
#X obj 208 72 inlet;
#X obj 249 72 inlet;
#X obj 290 72 inlet;
#X obj 340 72 inlet;
#X obj 74 121 f;
#X obj 115 121 f;
#X obj 156 121 f;
#X obj 197 121 f;
#X obj 238 121 f;
#X obj 279 121 f;
#X obj 48 250 spigot;
#X obj 20 72 inlet;
#X obj -110 158 sprintf /devices/mac/%s/;
#X obj -110 198 osc_netsend;
#X obj -110 72 inlet;
#X obj -69 72 inlet;
#X obj -110 323 outlet;
#X obj 48 212 sprintf /sensors/%s/;
#X connect 1 0 8 1;
#X connect 2 0 9 1;
#X connect 3 0 10 1;
#X connect 4 0 11 1;
#X connect 5 0 12 1;
#X connect 6 0 13 1;
#X connect 7 0 8 0;
#X connect 7 0 9 0;
#X connect 7 0 10 0;
#X connect 7 0 11 0;
#X connect 7 0 12 0;
#X connect 7 0 13 0;
#X connect 8 0 14 1;
#X connect 15 0 16 0;
#X connect 16 0 17 2;
#X connect 17 0 20 0;
#X connect 18 0 17 0;
#X connect 19 0 17 1;
