#N canvas 827 239 527 327 12;
#X obj 284 441 *;
#X obj 284 298 bng 25 250 50 0 empty empty empty 17 7 0 10 #191919 #ffffff #ffffff;
#X obj 145 107 inlet;
#X obj 321 107 inlet;
#X obj 399 107 inlet;
#X obj 471 107 inlet;
#X obj 608 107 inlet;
#X text 145 83 value;
#X obj 149 267 pack f f;
#X text 321 83 attack;
#X obj 284 347 delay;
#X text 399 83 decay;
#X text 471 83 sustain;
#X text 608 83 release;
#X obj 284 392 f;
#X obj 284 487 pack f f;
#X obj 421 361 bng 25 250 50 0 empty empty empty 17 7 0 10 #191919 #ffffff #ffffff;
#X obj 421 410 delay;
#X obj 421 521 pack f f;
#X text 543 83 hold;
#X obj 543 107 inlet;
#X obj 442 329 +;
#X text 421 297 decay length + hold;
#X msg 422 441 0;
#X obj 149 595 line~;
#X obj 149 678 outlet~;
#X connect 0 0 15 0;
#X connect 1 0 10 0;
#X connect 2 0 0 1;
#X connect 2 0 8 0;
#X connect 3 0 10 1;
#X connect 3 0 8 1;
#X connect 4 0 15 1;
#X connect 4 0 21 0;
#X connect 5 0 14 1;
#X connect 6 0 18 1;
#X connect 8 0 1 0;
#X connect 8 0 24 0;
#X connect 10 0 16 0;
#X connect 10 0 14 0;
#X connect 14 0 0 0;
#X connect 15 0 24 0;
#X connect 16 0 17 0;
#X connect 17 0 23 0;
#X connect 18 0 24 0;
#X connect 20 0 21 1;
#X connect 21 0 17 1;
#X connect 23 0 18 0;
#X connect 24 0 25 0;
