#N canvas 827 239 527 327 12;
#X obj 244 284 expr $f1*$f3 + $f2*$f4;
#X obj 248 318 display;
#X text 418 283 dot product v . u;
#X obj 244 361 *;
#X obj 248 405 display;
#X obj 244 152 inlet;
#X obj 244 442 outlet;
#X obj 345 202 vector_normalize;
#X obj 345 152 inlet;
#X text 460 78 input vector 'u';
#X text 460 98 fixed object;
#X text 231 100 from sensor;
#X text 99 49 moving vector;
#X text 439 49 trigger vector;
#X obj 345 244 unpack f f;
#X text 231 78 input vector 'v';
#X text 231 123 normalized;
#X obj 244 244 unpack f f;
#X obj 117 152 inlet;
#X text 117 78 'v' magnitude;
#X text 271 404 rescale: dot product times 'v' magnitude;
#X obj 597 315 outlet;
#X obj 404 168 loadbang;
#X connect 0 0 1 0;
#X connect 1 0 3 0;
#X connect 3 0 4 0 32.................M.........PC.........jA....;
#X connect 4 0 6 0 32.................F.........fA.........v.....;
#X connect 5 0 17 0 32.................j..........I.........fD....;
#X connect 7 1 14 0 32.................K....b5++++B....m9+++aA....;
#X connect 7 1 21 0;
#X connect 8 0 7 0 32.................O.........vC.........3A....;
#X connect 14 0 0 2 32.................J....79+++uB....u++++SA....;
#X connect 14 1 0 3 32.................J....f9+++uB....n++++SA....;
#X connect 17 0 0 0 32.................J.........fB.........PA....;
#X connect 17 1 0 1 32.................J....j++++uB....4++++SA....;
#X connect 18 0 3 1 32.................2B...rH...vs....KB...TL....;
#X connect 22 0 7 0 32.................G....X7++++A....F++++6.....;
