#N canvas 827 239 527 327 12;
#X obj 109 89 adc~;
#X obj 65 633 out~;
#X obj 66 157 tgl 25 0 empty empty empty 17 7 0 10 #191919 #ffffff #ffffff 0 1;
#X text 7 156 FILTER;
#X obj 66 218 gate~ 2 1;
#X obj 66 190 + 1;
#X obj 225 89 spectrograph~ -db 1 -log 1 20;
#X obj -143 163 samplerate~;
#X obj -143 192 / 64;
#X obj -143 221 osc~;
#X obj -143 250 *~ -0.5;
#X obj -159 318 tabwrite~ hanning;
#X msg -46 162 0;
#X obj -143 279 +~ 0.5;
#N canvas 0 0 450 250 (subpatch) 0;
#X array hanning 64 float 2;
#X coords 0 1 64 0 200 140 1;
#X restore -380 169 graph;
#X obj -159 123 loadbang;
#X obj -159 93 bng 25 250 50 0 empty empty empty 17 7 0 10 #191919 #ffffff #ffffff;
#N canvas 0 50 450 300 fft-analyze 0;
#X obj 190 48 block~ 512 4;
#X obj 193 99 inlet~;
#X obj 261 146 tabreceive~ hanning;
#X obj 193 174 *~;
#X obj 193 203 rfft~;
#X obj 194 351 *~;
#X obj 244 351 *~;
#X obj 299 215 tabreceive~ gain;
#X obj 299 244 *~;
#X obj 299 273 *~;
#X obj 194 399 rifft~;
#X obj 261 407 tabreceive~ hanning;
#X obj 193 448 *~;
#X obj 193 477 outlet~;
#X obj 299 302 /~ 512;
#X connect 1 0 3 0;
#X connect 2 0 3 1;
#X connect 3 0 4 0;
#X connect 4 0 5 0;
#X connect 4 1 6 0;
#X connect 5 0 10 0;
#X connect 7 0 8 0;
#X connect 7 0 8 1;
#X connect 8 0 9 0;
#X connect 8 0 9 1;
#X connect 9 0 14 0;
#X connect 10 0 12 0;
#X connect 11 0 12 1;
#X connect 12 0 13 0;
#X connect 14 0 5 1;
#X connect 14 0 6 1;
#X restore 109 265 pd fft-analyze;
#X text 225 50 Input;
#X obj 136 303 r outputGain;
#X obj 109 343 *~;
#X obj 225 318 spectrograph~ -db 1 -log 1 20;
#X text 225 286 Filtered;
#X obj 621 394 loadbang;
#X msg 585 449 uni 1;
#X obj 585 389 bng 25 250 50 0 empty empty empty 17 7 0 10 #191919 #ffffff #ffffff;
#X msg 630 449 width 299;
#X msg 719 449 height 139;
#X obj 234 666 hsl 128 17 0 20 0 1 outputGain empty empty -2 -8 0 10 #191919 #ffffff #ffffff 1582 1;
#X obj 225 486 slidarr gain;
#A saved 64 1 299 139 2 3 #191919 40;
#A saved;
#A saved 0.475177 0.475177 0.475177 0.453901 0.453901 0.453901 0.453901 0.453901 0.453901 0.453901 0.453901 0.453901 0.453901 0.453901 0.453901 0.453901 0.453901 0.453901 0.453901 0.450355 0.449173 0.447991 0.443853 0.441785 0.440751 0.440233 0.439975 0.439846 0.439803 0.439759 0.436192 0.434408 0.433516 0.43307 0.432847 0.432736 0.43268 0.432652 0.432643 0.432633 0.432629 0.432626 0.432626 0.432625 0.432624 0.432624 0.432624 0.432624 0.432624 0.432624 0.432624 0.43617 0.437352 0.438534 0.439125 0.439421 0.446809 0.450355 0.452128 0.460993 0.468085 0.468085 0.475177 0.475177;
#X msg 225 635;
#X msg 804 449 resize 64;
#X obj 231 692 display;
#X connect 0 0 4 1;
#X connect 0 0 6 0;
#X connect 2 0 5 0;
#X connect 4 0 1 0;
#X connect 4 1 17 0;
#X connect 5 0 4 0;
#X connect 7 0 8 0;
#X connect 8 0 9 0;
#X connect 9 0 10 0;
#X connect 10 0 13 0;
#X connect 12 0 9 1;
#X connect 13 0 11 0;
#X connect 15 0 7 0;
#X connect 15 0 12 0;
#X connect 15 0 11 0;
#X connect 16 0 11 0;
#X connect 16 0 7 0;
#X connect 16 0 12 0;
#X connect 17 0 20 0;
#X connect 19 0 20 1;
#X connect 20 0 21 0;
#X connect 20 0 1 0;
#X connect 23 0 24 0;
#X connect 23 0 26 0;
#X connect 23 0 27 0;
#X connect 23 0 31 0;
#X connect 24 0 29 0;
#X connect 25 0 26 0;
#X connect 25 0 27 0;
#X connect 25 0 24 0;
#X connect 25 0 31 0;
#X connect 26 0 29 0;
#X connect 27 0 29 0;
#X connect 28 0 32 0;
#X connect 31 0 29 0;
