#N canvas 827 239 527 327 12;
#X obj 93 526 cnv 15 279 184 empty empty empty 20 12 0 14 #dbcfbe #5a5a5a 0;
#X obj 93 339 cnv 15 279 184 empty empty empty 20 12 0 14 #dbcfbe #5a5a5a 0;
#X obj 93 129 cnv 15 174 190 empty empty empty 20 12 0 14 #a2d6c2 #5a5a5a 0;
#X text 123 140 SENS;
#X obj 184 154 tgl 21 0 sens_acc sens_acc empty 0 -11 0 12 #a2d6c2 #000000 #000000 0 1;
#X text 207 153 acc;
#X text 207 179 gyr;
#X text 207 205 mag;
#X obj 184 180 tgl 21 0 sens_gyro sens_gyro empty 0 -11 0 12 #a2d6c2 #000000 #000000 0 1;
#X obj 184 206 tgl 21 0 sens_mag sens_mag empty 0 -11 0 12 #a2d6c2 #000000 #000000 0 1;
#X obj 103 181 tgl 21 0 sens_light empty empty 0 -11 0 12 #a2d6c2 #000000 #000000 0 1;
#X obj 103 207 tgl 21 0 sens_temp empty empty 0 -11 0 12 #a2d6c2 #000000 #000000 0 1;
#X text 126 180 light;
#X text 126 206 temp;
#X text 105 240 euler;
#X text 130 290 quat;
#X text 156 240 grav;
#X text 174 290 linacc;
#X obj 110 97 r rdy, f 6;
#X obj 110 266 hradio 23 1 1 5 fusion fusion empty 0 -8 0 10 #a2d6c2 #5a5a5a #5a5a5a 1;
#X text 207 240 off;
#X obj 213 348 r fusion;
#X obj 99 494 s sens_acc;
#X obj 187 462 spigot;
#X floatatom 187 435 5 0 0 0 - - - 12;
#X obj 185 408 t b;
#X obj 187 494 s sens_gyro;
#X obj 280 494 s sens_mag;
#X obj 101 545 r sens_acc;
#X obj 190 545 r sens_gyro;
#X obj 284 545 r sens_mag;
#X obj 308 610 == 1;
#X obj 101 646 spigot;
#X obj 99 584 t b;
#X obj 101 678 s fusion;
#X floatatom 101 610 6 0 0 0 - - - 12;
#X obj 213 375 < 4;
#X text 241 402 if fusion modes are turned on \, shut off primary sensors, f 18;
#X text 238 645 if primary sensors are turned on \, shut of fusion modes, f 18;
#X connect 18 0 19 0;
#X connect 21 0 36 0;
#X connect 23 0 22 0;
#X connect 23 0 26 0;
#X connect 23 0 27 0;
#X connect 24 0 23 0;
#X connect 25 0 24 0;
#X connect 28 0 31 0;
#X connect 28 0 33 0;
#X connect 29 0 31 0;
#X connect 29 0 33 0;
#X connect 30 0 31 0;
#X connect 30 0 33 0;
#X connect 31 0 32 1;
#X connect 32 0 34 0;
#X connect 33 0 35 0;
#X connect 35 0 32 0;
#X connect 36 0 23 1;
#X connect 36 0 25 0;
