#N canvas 827 239 527 327 12;
#X obj 305 496 cnv 15 105 129 empty empty empty 20 12 0 14 #8fd991 #5a5a5a 0;
#X obj 606 28 cnv 15 353 227 empty empty empty 20 12 0 14 #dbcfbe #5a5a5a 0;
#X obj 311 197 cnv 15 282 88 empty empty empty 20 12 0 14 #bbb6ae #5a5a5a 0;
#X obj 40 121 cnv 15 237 204 empty empty empty 20 12 0 14 #9e9de6 #5a5a5a 0;
#X obj 40 28 cnv 15 237 92 empty empty empty 20 12 0 14 #e6a0a0 #5a5a5a 0;
#X obj 40 326 cnv 15 237 84 empty empty empty 20 12 0 14 #9ec6e6 #5a5a5a 0;
#X text 61 132 NET, f 6;
#X obj 200 64 tgl 21 0 empty ble empty 0 -11 0 12 #e6a0a0 #000000 #000000 0 1;
#X text 64 43 RDY;
#X text 223 63 ble;
#X obj 200 92 tgl 21 0 empty dev empty 0 -11 0 12 #e6a0a0 #000000 #000000 0 1;
#X text 223 91 dev;
#X obj 200 36 tgl 21 0 empty conf empty 0 -11 0 12 #e6a0a0 #000000 #000000 0 1;
#X obj 136 36 bng 35 250 50 0 rdy empty empty 17 7 0 10 #e6a0a0 #5a5a5a #5a5a5a;
#X obj 311 28 cnv 15 282 163 empty empty empty 20 12 0 14 #dbcfbe #5a5a5a 0;
#X text 223 35 conf;
#X msg 135 373 EC:47:49:CF:53:C4;
#X obj 339 259 osc_netsend;
#X text 63 83 STREAM;
#X obj 338 99 moses 0.5;
#X msg 406 156 /start_stream 1;
#X text 61 155 receive, f 9;
#X obj 127 133 r rdy, f 6;
#X msg 205 183 12345;
#X obj 61 183 s port;
#X obj 61 207 s ip;
#X msg 160 286 192.168.4.100;
#X msg 212 262 8001;
#X text 63 234 send, f 9;
#X obj 61 262 s send_port;
#X obj 61 286 s send_ip;
#X obj 136 79 tgl 35 0 stream empty empty 17 7 0 10 #e3b4a5 #5a5a5a #5a5a5a 0 1;
#X obj 339 208 r send_ip;
#X obj 371 230 r send_port;
#X obj 338 71 r stream;
#X msg 392 133 /stop_stream 1;
#X obj 130 338 r rdy, f 6;
#X text 61 337 DEV01, f 8;
#X obj 56 373 s dev01;
#X obj 692 44 r dev01;
#X text 40 -28 UI, f 7;
#X text 311 -28 Implementations, f 19;
#X text 337 43 sends signals to Devices;
#X obj 522 71 r rdy;
#X msg 522 100 /ready;
#X obj 40 411 cnv 15 237 84 empty empty empty 20 12 0 14 #9ec6e6 #5a5a5a 0;
#X obj 130 423 r rdy, f 6;
#X text 63 421 DEV02, f 8;
#X obj 56 458 s dev02;
#X msg 135 458 E0:2D:64:47:02:F5;
#X obj 627 127 fs_parse;
#X obj 40 496 cnv 15 153 129 empty empty empty 20 12 0 14 #8fd991 #5a5a5a 0;
#X obj 194 496 cnv 15 110 129 empty empty empty 20 12 0 14 #8fd991 #5a5a5a 0;
#X obj 411 496 cnv 15 112 129 empty empty empty 20 12 0 14 #8fd991 #5a5a5a 0;
#X obj 65 540 vsl 21 74 -2 2 0 0 empty sf1 1 7 -9 0 10 #e3dfd9 #5a5a5a #5a5a5a 0 1;
#X obj 92 540 vsl 21 74 -2 2 0 0 empty sf2 2 7 -9 0 10 #e3dfd9 #5a5a5a #5a5a5a 0 1;
#X obj 119 540 vsl 21 74 -2 2 0 0 empty sf3 3 7 -9 0 10 #e3dfd9 #5a5a5a #5a5a5a 0 1;
#X obj 146 540 vsl 21 74 -2 2 0 0 empty sf4 4 7 -9 0 10 #e3dfd9 #5a5a5a #5a5a5a 0 1;
#X obj 627 164 s sf1;
#X obj 667 164 s sf2;
#X obj 709 164 s sf3;
#X obj 751 164 s sf4;
#X obj 211 540 vsl 21 74 -2 2 0 0 empty acc1 1 7 -9 0 10 #e3dfd9 #5a5a5a #5a5a5a 0 1;
#X obj 238 540 vsl 21 74 -2 2 0 0 empty acc2 2 7 -9 0 10 #e3dfd9 #5a5a5a #5a5a5a 0 1;
#X obj 265 540 vsl 21 74 -2 2 0 0 empty acc3 3 7 -9 0 10 #e3dfd9 #5a5a5a #5a5a5a 0 1;
#X obj 319 540 vsl 21 74 -1000 1000 0 0 empty gyr1 1 7 -9 0 10 #e3dfd9 #5a5a5a #5a5a5a 0 1;
#X obj 346 540 vsl 21 74 -1000 1000 0 0 empty gyr2 2 7 -9 0 10 #e3dfd9 #5a5a5a #5a5a5a 0 1;
#X obj 373 540 vsl 21 74 -1000 1000 0 0 empty gyr3 3 7 -9 0 10 #e3dfd9 #5a5a5a #5a5a5a 0 1;
#X obj 651 185 s acc1;
#X obj 701 185 s acc2;
#X obj 753 185 s acc3;
#X obj 675 206 s gyr1;
#X obj 725 206 s gyr2;
#X obj 777 206 s gyr3;
#X obj 701 227 s mag1;
#X obj 751 227 s mag2;
#X obj 803 227 s mag3;
#X obj 834 164 s light;
#X obj 886 164 s temp;
#X obj 430 540 vsl 21 74 -100 100 0 0 empty mag1 1 7 -9 0 10 #e3dfd9 #5a5a5a #5a5a5a 0 1;
#X obj 457 540 vsl 21 74 -100 100 0 0 empty mag2 2 7 -9 0 10 #e3dfd9 #5a5a5a #5a5a5a 0 1;
#X obj 484 540 vsl 21 74 -100 100 0 0 empty mag3 3 7 -9 0 10 #e3dfd9 #5a5a5a #5a5a5a 0 1;
#X obj 524 -40 tgl 25 0 debug empty empty 17 7 0 10 #e3dfd9 #5a5a5a #5a5a5a 0 1;
#X text 554 -35 debug;
#X obj 627 100 route sym;
#X obj 692 71 symbol;
#X obj 311 292 cnv 15 282 163 empty empty empty 20 12 0 14 #dbcfbe #5a5a5a 0;
#X obj 337 332 fs_receiver;
#X obj 337 305 r port;
#X obj 392 373 s conf;
#X obj 442 373 s dev;
#X obj 487 373 s ble;
#X obj 449 305 spigot;
#X obj 506 305 r debug;
#X obj 449 331 display;
#X obj 337 373 s msg;
#X obj 627 44 r msg;
#X obj 529 373 s fusion;
#X obj 886 100 r fusion;
#X text 61 508 FUSION, f 15;
#X text 208 508 ACC, f 11;
#X text 316 508 GYR, f 11;
#X text 427 508 MAG, f 11;
#X obj 606 262 cnv 15 353 227 empty empty empty 20 12 0 14 #dbcfbe #5a5a5a 0;
#X obj 627 361 fs_parse;
#X obj 627 334 route sym;
#X obj 692 305 symbol;
#X obj 627 278 r msg;
#X obj 886 334 r fusion;
#X obj 692 278 r dev02;
#X obj 305 626 cnv 15 105 129 empty empty empty 20 12 0 14 #8fd991 #5a5a5a 0;
#X obj 40 626 cnv 15 153 129 empty empty empty 20 12 0 14 #8fd991 #5a5a5a 0;
#X obj 194 626 cnv 15 110 129 empty empty empty 20 12 0 14 #8fd991 #5a5a5a 0;
#X obj 411 626 cnv 15 112 129 empty empty empty 20 12 0 14 #8fd991 #5a5a5a 0;
#X obj 65 670 vsl 21 74 -1 1 0 0 empty 02sf1 1 7 -9 0 10 #e3dfd9 #5a5a5a #5a5a5a 0 1;
#X obj 92 670 vsl 21 74 -1 1 0 0 empty 02sf2 2 7 -9 0 10 #e3dfd9 #5a5a5a #5a5a5a 0 1;
#X obj 119 670 vsl 21 74 -1 1 0 0 empty 02sf3 3 7 -9 0 10 #e3dfd9 #5a5a5a #5a5a5a 0 1;
#X obj 146 670 vsl 21 74 -1 1 0 0 empty 02sf4 4 7 -9 0 10 #e3dfd9 #5a5a5a #5a5a5a 0 1;
#X obj 211 670 vsl 21 74 -2 2 0 0 empty 02acc1 1 7 -9 0 10 #e3dfd9 #5a5a5a #5a5a5a 0 1;
#X obj 238 670 vsl 21 74 -2 2 0 0 empty 02acc2 2 7 -9 0 10 #e3dfd9 #5a5a5a #5a5a5a 0 1;
#X obj 265 670 vsl 21 74 -2 2 0 0 empty 02acc3 3 7 -9 0 10 #e3dfd9 #5a5a5a #5a5a5a 0 1;
#X obj 319 670 vsl 21 74 -1000 1000 0 0 empty 02gyr1 1 7 -9 0 10 #e3dfd9 #5a5a5a #5a5a5a 0 1;
#X obj 346 670 vsl 21 74 -1000 1000 0 0 empty 02gyr2 2 7 -9 0 10 #e3dfd9 #5a5a5a #5a5a5a 0 1;
#X obj 373 670 vsl 21 74 -1000 1000 0 0 empty 02gyr3 3 7 -9 0 10 #e3dfd9 #5a5a5a #5a5a5a 0 1;
#X obj 430 670 vsl 21 74 -100 100 0 0 empty 02mag1 1 7 -9 0 10 #e3dfd9 #5a5a5a #5a5a5a 0 1;
#X obj 457 670 vsl 21 74 -100 100 0 0 empty 02mag2 2 7 -9 0 10 #e3dfd9 #5a5a5a #5a5a5a 0 1;
#X obj 484 670 vsl 21 74 -100 100 0 0 empty 02mag3 3 7 -9 0 10 #e3dfd9 #5a5a5a #5a5a5a 0 1;
#X text 61 638 FUSION, f 15;
#X text 208 638 ACC, f 11;
#X text 316 638 GYR, f 11;
#X text 427 638 MAG, f 11;
#X obj 627 398 s 02sf1;
#X obj 667 398 s 02sf2;
#X obj 709 398 s 02sf3;
#X obj 751 398 s 02sf4;
#X obj 651 419 s 02acc1;
#X obj 701 419 s 02acc2;
#X obj 753 419 s 02acc3;
#X obj 675 440 s 02gyr1;
#X obj 725 440 s 02gyr2;
#X obj 777 440 s 02gyr3;
#X obj 701 461 s 02mag1;
#X obj 751 461 s 02mag2;
#X obj 803 461 s 02mag3;
#X obj 834 398 s 02light;
#X obj 886 398 s 02temp;
#X msg 488 212 /stop_server;
#X obj 73 779 s p1;
#X obj 121 782 s p2;
#X obj 182 788 s p3;
#X msg 188 207 localhost;
#X obj 771 305 spigot;
#X obj 828 305 r debug;
#X obj 952 249 display;
#X obj 844 185 s acc_mag;
#X obj 924 185 s tilt;
#X obj 844 419 s 02acc_mag;
#X obj 924 419 s 02tilt;
#X obj 522 496 cnv 15 213 129 empty empty empty 20 12 0 14 #8fd991 #5a5a5a 0;
#X obj 522 626 cnv 15 213 129 empty empty empty 20 12 0 14 #8fd991 #5a5a5a 0;
#X text 548 508 PIPELINE, f 11;
#X text 548 638 PIPELINE, f 11;
#X obj 548 540 vsl 21 74 1 5 0 0 empty acc_mag Acc\ Magnitude -9 -9 0 10 #e3dfd9 #5a5a5a #5a5a5a 0 1;
#X obj 548 670 vsl 21 74 1 5 0 0 empty 02acc_mag Acc\ Magnitude -9 -9 0 10 #e3dfd9 #5a5a5a #5a5a5a 0 1;
#X obj 1008 369 parse_fusion;
#X obj 1119 438 display;
#X obj 1016 423 display;
#X obj 1044 437 display;
#X obj 1092 443 display;
#X obj 1071 437 display;
#X msg 986 303 4;
#X obj 578 540 vsl 21 74 0 180 0 0 empty tilt tilt -9 -9 0 10 #e3dfd9 #5a5a5a #5a5a5a 0 1;
#X obj 578 670 vsl 21 74 0 180 0 0 empty 02tilt tilt -9 -9 0 10 #e3dfd9 #5a5a5a #5a5a5a 0 1;
#X connect 16 0 38 0;
#X connect 19 0 35 0;
#X connect 19 1 20 0;
#X connect 20 0 17 2;
#X connect 22 0 23 0;
#X connect 22 0 150 0;
#X connect 22 0 27 0;
#X connect 22 0 26 0;
#X connect 23 0 24 0;
#X connect 26 0 30 0;
#X connect 27 0 29 0;
#X connect 32 0 17 0;
#X connect 33 0 17 1;
#X connect 34 0 19 0;
#X connect 35 0 17 2;
#X connect 36 0 16 0;
#X connect 39 0 85 0;
#X connect 43 0 44 0;
#X connect 44 0 17 2;
#X connect 46 0 49 0;
#X connect 49 0 48 0;
#X connect 50 0 58 0;
#X connect 50 1 59 0;
#X connect 50 2 60 0;
#X connect 50 3 61 0;
#X connect 50 4 68 0;
#X connect 50 5 69 0;
#X connect 50 6 70 0;
#X connect 50 7 71 0;
#X connect 50 8 72 0;
#X connect 50 9 73 0;
#X connect 50 10 74 0;
#X connect 50 11 75 0;
#X connect 50 12 76 0;
#X connect 50 13 77 0;
#X connect 50 14 78 0;
#X connect 50 15 154 0;
#X connect 50 16 155 0;
#X connect 62 0 147 0;
#X connect 63 0 148 0;
#X connect 64 0 149 0;
#X connect 84 0 50 0;
#X connect 85 0 84 1;
#X connect 87 0 95 0;
#X connect 87 0 92 0;
#X connect 87 1 89 0;
#X connect 87 2 90 0;
#X connect 87 3 91 0;
#X connect 87 4 97 0;
#X connect 88 0 87 0;
#X connect 92 0 94 0;
#X connect 93 0 92 1;
#X connect 96 0 84 0;
#X connect 98 0 50 1;
#X connect 104 0 131 0;
#X connect 104 1 132 0;
#X connect 104 2 133 0;
#X connect 104 3 134 0;
#X connect 104 4 135 0;
#X connect 104 5 136 0;
#X connect 104 6 137 0;
#X connect 104 7 138 0;
#X connect 104 8 139 0;
#X connect 104 9 140 0;
#X connect 104 10 141 0;
#X connect 104 11 142 0;
#X connect 104 12 143 0;
#X connect 104 13 144 0;
#X connect 104 14 145 0;
#X connect 104 15 156 0;
#X connect 104 16 157 0;
#X connect 105 0 104 0;
#X connect 105 0 151 0;
#X connect 105 0 164 0;
#X connect 106 0 105 1;
#X connect 107 0 105 0;
#X connect 108 0 104 1;
#X connect 108 0 164 1;
#X connect 109 0 106 0;
#X connect 146 0 17 2;
#X connect 150 0 25 0;
#X connect 151 0 153 0;
#X connect 152 0 151 1;
#X connect 164 0 166 0;
#X connect 164 1 167 0;
#X connect 164 2 169 0;
#X connect 164 3 168 0;
#X connect 164 4 165 0;
#X connect 170 0 104 1;
