#N canvas 827 239 527 327 12;
#X text 309 71 sensor fusion mode;
#X obj 308 95 inlet;
#X obj 158 95 inlet;
#X text 158 71 message stream;
#X obj 223 266 parse_primary;
#X obj 158 228 parse_fusion;
#X obj 378 308 parse_secondary;
#X obj -203 453 outlet;
#X obj 7 453 outlet;
#X obj 52 453 outlet;
#X obj 98 453 outlet;
#X obj 157 453 outlet;
#X obj 204 453 outlet;
#X obj 251 453 outlet;
#X obj 309 453 outlet;
#X obj 356 453 outlet;
#X obj 402 453 outlet;
#X obj -156 453 outlet;
#X obj -111 453 outlet;
#X obj -65 453 outlet;
#X obj 492 453 outlet;
#X obj 538 453 outlet;
#X obj 611 453 outlet;
#X connect 1 0 5 1;
#X connect 2 0 5 0;
#X connect 4 0 8 0;
#X connect 4 1 9 0;
#X connect 4 2 10 0;
#X connect 4 3 11 0;
#X connect 4 4 12 0;
#X connect 4 5 13 0;
#X connect 4 6 14 0;
#X connect 4 7 15 0;
#X connect 4 8 16 0;
#X connect 4 9 6 0;
#X connect 5 0 7 0;
#X connect 5 1 17 0;
#X connect 5 2 18 0;
#X connect 5 3 19 0;
#X connect 5 4 4 0;
#X connect 6 0 20 0;
#X connect 6 1 21 0;
#X connect 6 2 22 0;
