#N canvas 827 239 527 327 12;
#X obj 197 176 netreceive -u -b;
#X msg 197 147 listen \$1;
#X obj 197 205 oscparse;
#X obj 197 235 list trim;
#X obj 197 262 route indicator;
#X obj 197 291 route conf;
#X obj 247 322 route dev;
#X obj 292 352 route ble;
#X obj 197 96 inlet;
#X text 92 95 listening port;
#X obj 228 496 outlet;
#X obj 277 496 outlet;
#X obj 326 496 outlet;
#X obj 139 496 outlet;
#X text 139 470 sensor data;
#X text 228 470 status checks;
#X text 227 527 config;
#X text 277 527 dev;
#X text 324 527 ble;
#X obj 375 496 outlet;
#X obj 334 387 route fusion;
#X text 375 527 fusion;
#X connect 0 0 2 0;
#X connect 1 0 0 0;
#X connect 2 0 3 0;
#X connect 3 0 4 0;
#X connect 4 0 5 0;
#X connect 4 1 13 0;
#X connect 5 0 10 0;
#X connect 5 1 6 0;
#X connect 6 0 11 0;
#X connect 6 1 7 0;
#X connect 7 0 12 0;
#X connect 7 1 20 0;
#X connect 8 0 1 0;
#X connect 20 0 19 0;
#X connect 20 1 13 0;
