#N canvas 827 239 527 327 12;
#X obj 43 602 cnv 15 279 184 empty empty empty 20 12 0 14 #dbcfbe #5a5a5a 0;
#X obj 43 415 cnv 15 279 184 empty empty empty 20 12 0 14 #dbcfbe #5a5a5a 0;
#X obj 43 343 cnv 15 418 50 empty empty empty 20 12 0 14 #e6a0a0 #5a5a5a 0;
#X obj 43 152 cnv 15 174 190 empty empty empty 20 12 0 14 #a2d6c2 #5a5a5a 0;
#X obj 218 67 cnv 15 243 275 empty empty empty 20 12 0 14 #9ec6e6 #5a5a5a 0;
#X text 73 163 SENS;
#X text 399 80 DEV, f 6;
#X obj 134 177 tgl 21 0 sens_acc sens_acc empty 0 -11 0 12 #a2d6c2 #000000 #000000 0 1;
#X msg 313 177;
#X msg 313 208;
#X obj 227 114 s dev01;
#X obj 227 145 s dev02;
#X obj 227 177 s dev03;
#X obj 227 208 s dev04;
#X obj 43 67 cnv 15 174 84 empty empty empty 20 12 0 14 #9e9de6 #5a5a5a 0;
#X text 73 80 NET, f 6;
#X msg 150 122 12345;
#X obj 60 122 s port;
#X text 157 176 acc;
#X text 157 202 gyr;
#X text 157 228 mag;
#X obj 134 203 tgl 21 0 sens_gyro sens_gyro empty 0 -11 0 12 #a2d6c2 #000000 #000000 0 1;
#X obj 134 229 tgl 21 0 sens_mag sens_mag empty 0 -11 0 12 #a2d6c2 #000000 #000000 0 1;
#X obj 53 204 tgl 21 0 sens_light empty empty 0 -11 0 12 #a2d6c2 #000000 #000000 0 1;
#X obj 53 230 tgl 21 0 sens_temp empty empty 0 -11 0 12 #a2d6c2 #000000 #000000 0 1;
#X text 76 203 light;
#X text 76 229 temp;
#X msg 313 240;
#X msg 313 271;
#X msg 313 302;
#X obj 227 240 s dev05;
#X obj 227 271 s dev06;
#X obj 227 302 s dev07;
#X text 55 263 euler;
#X text 80 313 quat;
#X text 106 263 grav;
#X text 124 313 linacc;
#X obj 289 359 tgl 21 0 empty empty empty 0 -11 0 12 #e6a0a0 #000000 #000000 0 1;
#X text 73 358 RDY;
#X text 312 358 ble;
#X obj 358 359 tgl 21 0 empty empty empty 0 -11 0 12 #e6a0a0 #000000 #000000 0 1;
#X text 381 358 dev;
#X obj 212 359 tgl 21 0 empty empty empty 0 -11 0 12 #e6a0a0 #000000 #000000 0 1;
#X obj 120 351 bng 35 250 50 0 rdy empty empty 17 7 0 10 #e6a0a0 #5a5a5a #5a5a5a;
#X obj 246 74 r rdy, f 6;
#X msg 313 145 E0:2D:64:47:02:F5;
#X obj 461 67 cnv 15 170 326 empty empty empty 20 12 0 14 #e1bce6 #5a5a5a 0;
#X text 495 80 CTRL, f 6;
#X text 477 246 smooth, f 12;
#X text 480 112 coordinate, f 11;
#X text 480 180 spatialize, f 11;
#X text 475 314 drift, f 12;
#X obj 483 140 hsl 121 20 0 127 0 0 empty empty empty -2 -8 0 10 #e1bce6 #5a5a5a #5a5a5a 0 1;
#X obj 483 208 hsl 121 20 0 127 0 0 empty empty empty -2 -8 0 10 #e1bce6 #5a5a5a #5a5a5a 0 1;
#X obj 483 277 hsl 121 20 0 127 0 0 empty empty empty -2 -8 0 10 #e1bce6 #5a5a5a #5a5a5a 0 1;
#X obj 483 343 hsl 121 20 0 127 0 0 empty empty empty -2 -8 0 10 #e1bce6 #5a5a5a #5a5a5a 0 1;
#X obj 60 289 hradio 23 1 1 5 fusion fusion empty 0 -8 0 10 #a2d6c2 #5a5a5a #5a5a5a 1;
#X text 157 263 off;
#X obj 651 67 osc_netreceive;
#X obj 651 42 r port;
#X obj 651 92 s msg;
#X obj 775 42 r msg;
#X obj 838 42 r dev01;
#X obj 907 42 r fusion;
#X obj 775 67 parse_all;
#X obj 163 424 r fusion;
#X obj 49 570 s sens_acc;
#X obj 137 538 spigot;
#X floatatom 137 511 5 0 0 0 - - - 12;
#X obj 135 484 t b;
#X obj 137 570 s sens_gyro;
#X obj 230 570 s sens_mag;
#X obj 51 621 r sens_acc;
#X obj 140 621 r sens_gyro;
#X obj 234 621 r sens_mag;
#X obj 258 686 == 1;
#X obj 51 722 spigot;
#X obj 49 660 t b;
#X obj 51 754 s fusion;
#X floatatom 51 686 6 0 0 0 - - - 12;
#X obj 163 451 < 4;
#X text 191 478 if fusion modes are turned on \, shut off primary sensors, f 18;
#X text 188 721 if primary sensors are turned on \, shut of fusion modes, f 18;
#X obj 343 415 cnv 15 279 184 empty empty empty 20 12 0 14 #dbcfbe #5a5a5a 0;
#X obj 1092 67 configure;
#X obj 357 424 r rdy;
#X obj 445 451 r sens_acc;
#X obj 445 424 r fusion;
#X obj 532 451 r sens_light;
#X obj 532 475 r sens_temp;
#X obj 445 475 r sens_gyro;
#X obj 445 499 r sens_mag;
#X obj 361 536 configure;
#X obj 355 475 r port;
#X msg 133 100 localhost;
#X obj 60 100 s ip;
#X obj 353 458 r ip;
#X obj 358 497 r dev01;
#X obj 343 602 cnv 15 279 184 empty empty empty 20 12 0 14 #dbcfbe #5a5a5a 0;
#X obj 358 621 r rdy;
#X obj 358 712 osc_netsend;
#X msg 358 653 192.168.4.100;
#X msg 465 653 8001;
#X msg 523 653 /start 1;
#X obj 358 749 bng 25 250 50 0 empty empty empty 17 7 0 10 #e3dfd9 #5a5a5a #5a5a5a;
#X text 235 358 conf;
#X obj 775 145 tabwrite array1;
#X obj 775 114 pack f f f f;
#X msg 721 145;
#X msg 313 114 EC:47:49:CF:53:C4;
#X obj 788 -51 osc.route;
#X obj 691 527 r port;
#X obj 691 592 osc.receive;
#X msg 691 556 connect \$1;
#X obj 1081 791 display;
#X obj 848 384 any2symbol;
#X msg 845 341 EC:47:49:CF:53:C4;
#X obj 953 378 display;
#X msg 989 340 mag;
#X obj 691 621 osc.route /E0:2D:64:47:02:F5 /EC:47:49:CF:53:C4;
#X obj 691 653 osc.route /quat;
#X obj 691 686 unpack f f f f;
#X obj 694 749 vsl 17 128 -2 2 0 0 empty empty empty 0 -9 0 10 #e3dfd9 #5a5a5a #5a5a5a 0 1;
#X obj 717 749 vsl 17 128 -2 2 0 0 empty empty empty 0 -9 0 10 #e3dfd9 #5a5a5a #5a5a5a 0 1;
#X obj 740 749 vsl 17 128 -2 2 0 0 empty empty empty 0 -9 0 10 #e3dfd9 #5a5a5a #5a5a5a 0 1;
#X obj 763 749 vsl 17 128 -2 2 0 0 empty empty empty 0 -9 0 10 #e3dfd9 #5a5a5a #5a5a5a 0 1;
#X obj 1040 625 route sym;
#X obj 1042 573 symbol;
#X obj 1040 654 display;
#X obj 1149 625 display;
#X msg 1042 544 /EC:47:49:CF:53:C4;
#X obj 819 556 netreceive -u -b;
#X msg 819 527 listen \$1;
#X msg 1125 473 EC:47:49:CF:53:C4;
#X obj 819 585 oscparse;
#X obj 1160 403 list;
#X obj 930 578 list trim;
#X connect 8 0 12 0;
#X connect 9 0 13 0;
#X connect 16 0 17 0;
#X connect 27 0 30 0;
#X connect 28 0 31 0;
#X connect 29 0 32 0;
#X connect 44 0 28 0;
#X connect 44 0 29 0;
#X connect 44 0 27 0;
#X connect 44 0 9 0;
#X connect 44 0 8 0;
#X connect 44 0 45 0;
#X connect 44 0 109 0;
#X connect 44 0 16 0;
#X connect 44 0 56 0;
#X connect 44 0 52 0;
#X connect 44 0 53 0;
#X connect 44 0 54 0;
#X connect 44 0 55 0;
#X connect 44 0 94 0;
#X connect 45 0 11 0;
#X connect 58 0 60 0;
#X connect 59 0 58 0;
#X connect 61 0 64 0;
#X connect 62 0 64 1;
#X connect 63 0 64 2;
#X connect 64 0 107 0;
#X connect 64 1 107 1;
#X connect 64 2 107 2;
#X connect 64 3 107 3;
#X connect 65 0 80 0;
#X connect 67 0 66 0;
#X connect 67 0 70 0;
#X connect 67 0 71 0;
#X connect 68 0 67 0;
#X connect 69 0 68 0;
#X connect 72 0 75 0;
#X connect 72 0 77 0;
#X connect 73 0 75 0;
#X connect 73 0 77 0;
#X connect 74 0 75 0;
#X connect 74 0 77 0;
#X connect 75 0 76 1;
#X connect 76 0 78 0;
#X connect 77 0 79 0;
#X connect 79 0 76 0;
#X connect 80 0 67 1;
#X connect 80 0 69 0;
#X connect 85 0 92 9;
#X connect 86 0 92 3;
#X connect 87 0 92 8;
#X connect 88 0 92 6;
#X connect 89 0 92 7;
#X connect 90 0 92 4;
#X connect 91 0 92 5;
#X connect 93 0 92 1;
#X connect 94 0 95 0;
#X connect 96 0 92 0;
#X connect 97 0 92 2;
#X connect 99 0 101 0;
#X connect 99 0 102 0;
#X connect 99 0 103 0;
#X connect 100 0 104 0;
#X connect 101 0 100 0;
#X connect 102 0 100 1;
#X connect 103 0 100 2;
#X connect 107 0 106 0;
#X connect 107 0 108 0;
#X connect 109 0 10 0;
#X connect 111 0 113 0;
#X connect 111 0 132 0;
#X connect 112 0 119 0;
#X connect 115 0 117 0;
#X connect 116 0 115 0;
#X connect 118 0 115 0;
#X connect 119 0 120 0;
#X connect 119 2 114 0;
#X connect 120 0 121 0;
#X connect 121 0 122 0;
#X connect 121 1 123 0;
#X connect 121 2 124 0;
#X connect 121 3 125 0;
#X connect 126 0 128 0;
#X connect 126 1 129 0;
#X connect 127 0 126 1;
#X connect 130 0 127 0;
#X connect 131 0 134 0;
#X connect 132 0 131 0;
#X connect 133 0 127 0;
#X connect 134 0 136 0;
#X connect 136 0 126 0;
