#N canvas 827 239 527 327 12;
#X obj 41 311 cnv 15 418 50 empty empty empty 20 12 0 14 #e6a0a0 #5a5a5a 0;
#X obj 41 120 cnv 15 174 190 empty empty empty 20 12 0 14 #a2d6c2 #5a5a5a 0;
#X obj 216 35 cnv 15 243 275 empty empty empty 20 12 0 14 #9ec6e6 #5a5a5a 0;
#X text 71 131 SENS;
#X text 397 48 DEV, f 6;
#X obj 132 145 tgl 21 0 empty sens_acc empty 0 -11 0 12 #a2d6c2 #000000 #000000 0 1;
#X msg 311 145;
#X msg 311 176;
#X obj 225 82 s dev01;
#X obj 225 113 s dev02;
#X obj 225 145 s dev03;
#X obj 225 176 s dev04;
#X obj 41 35 cnv 15 174 84 empty empty empty 20 12 0 14 #9e9de6 #5a5a5a 0;
#X text 71 48 NET, f 6;
#X msg 148 82 12345;
#X obj 51 81 s port;
#X text 155 144 acc;
#X text 155 170 gyr;
#X text 155 196 mag;
#X obj 132 171 tgl 21 0 empty sens_gyro empty 0 -11 0 12 #a2d6c2 #000000 #000000 0 1;
#X obj 132 197 tgl 21 0 empty sens_mag empty 0 -11 0 12 #a2d6c2 #000000 #000000 0 1;
#X obj 51 172 tgl 21 0 empty empty empty 0 -11 0 12 #a2d6c2 #000000 #000000 0 1;
#X obj 51 198 tgl 21 0 empty empty empty 0 -11 0 12 #a2d6c2 #000000 #000000 0 1;
#X text 74 171 light;
#X text 74 197 temp;
#X msg 311 208;
#X msg 311 239;
#X msg 311 270;
#X obj 225 208 s dev05;
#X obj 225 239 s dev06;
#X obj 225 270 s dev07;
#X text 53 231 euler;
#X text 78 281 quat;
#X text 104 231 grav;
#X text 122 281 linacc;
#X obj 287 327 tgl 21 0 empty empty empty 0 -11 0 12 #e6a0a0 #000000 #000000 0 1;
#X text 71 326 RDY;
#X text 310 326 ble;
#X obj 356 327 tgl 21 0 empty empty empty 0 -11 0 12 #e6a0a0 #000000 #000000 0 1;
#X text 379 326 dev;
#X obj 210 327 tgl 21 0 empty empty empty 0 -11 0 12 #e6a0a0 #000000 #000000 0 1;
#X text 233 326 conf;
#X obj 118 319 bng 35 250 50 0 rdy empty empty 17 7 0 10 #e6a0a0 #5a5a5a #5a5a5a;
#X obj 287 49 r rdy, f 6;
#X msg 311 82 EC:47:49:CF:53:C4;
#X msg 311 113 E0:2D:64:47:02:F5;
#X obj 459 35 cnv 15 170 326 empty empty empty 20 12 0 14 #e1bce6 #5a5a5a 0;
#X text 493 48 CTRL, f 6;
#X text 475 214 smooth, f 12;
#X text 478 80 coordinate, f 11;
#X text 478 148 spatialize, f 11;
#X text 473 282 drift, f 12;
#X obj 481 108 hsl 121 20 0 127 0 0 empty empty empty -2 -8 0 10 #e1bce6 #5a5a5a #5a5a5a 0 1;
#X obj 481 176 hsl 121 20 0 127 0 0 empty empty empty -2 -8 0 10 #e1bce6 #5a5a5a #5a5a5a 0 1;
#X obj 481 245 hsl 121 20 0 127 0 0 empty empty empty -2 -8 0 10 #e1bce6 #5a5a5a #5a5a5a 0 1;
#X obj 481 311 hsl 121 20 0 127 0 0 empty empty empty -2 -8 0 10 #e1bce6 #5a5a5a #5a5a5a 0 1;
#X obj 58 257 hradio 23 1 1 5 fusion empty empty 0 -8 0 10 #a2d6c2 #5a5a5a #5a5a5a 0;
#X text 155 231 off;
#X obj 651 67 osc_netreceive;
#X obj 651 42 r port;
#X obj 651 92 s msg;
#X obj 775 42 r msg;
#X obj 838 42 r dev01;
#X obj 907 42 r fusion;
#X obj 775 67 parse_all;
#X connect 6 0 10 0;
#X connect 7 0 11 0;
#X connect 14 0 15 0;
#X connect 25 0 28 0;
#X connect 26 0 29 0;
#X connect 27 0 30 0;
#X connect 43 0 26 0;
#X connect 43 0 27 0;
#X connect 43 0 25 0;
#X connect 43 0 7 0;
#X connect 43 0 6 0;
#X connect 43 0 45 0;
#X connect 43 0 44 0;
#X connect 43 0 14 0;
#X connect 43 0 56 0;
#X connect 43 0 52 0;
#X connect 43 0 53 0;
#X connect 43 0 54 0;
#X connect 43 0 55 0;
#X connect 44 0 8 0;
#X connect 45 0 9 0;
#X connect 58 0 60 0;
#X connect 59 0 58 0;
#X connect 61 0 64 0;
#X connect 62 0 64 1;
#X connect 63 0 64 2;
