#N canvas 827 239 527 327 12;
#X obj 776 322 cnv 15 418 50 empty empty empty 20 12 0 14 #e6a0a0 #5a5a5a 0;
#X obj 776 131 cnv 15 174 190 empty empty empty 20 12 0 14 #a2d6c2 #5a5a5a 0;
#X obj 238 78 osc_netreceive;
#X obj 181 256 route sym;
#X obj 951 46 cnv 15 243 275 empty empty empty 20 12 0 14 #9ec6e6 #5a5a5a 0;
#X text 806 142 SENS;
#X text 1132 59 DEV, f 6;
#X obj 867 156 tgl 21 0 empty sens_acc empty 0 -11 0 12 #a2d6c2 #000000 #000000 0 1;
#X msg 1046 156;
#X msg 1046 187;
#X obj 960 93 s dev01;
#X obj 960 124 s dev02;
#X obj 960 156 s dev03;
#X obj 960 187 s dev04;
#X obj 229 208 r dev01;
#X text -19 115 test message;
#X obj 776 46 cnv 15 174 84 empty empty empty 20 12 0 14 #9e9de6 #5a5a5a 0;
#X text 806 59 NET, f 6;
#X msg 883 93 12345;
#X obj 786 92 s port;
#X obj 238 46 r port;
#X text 890 155 acc;
#X text 890 181 gyr;
#X text 890 207 mag;
#X obj 867 182 tgl 21 0 empty sens_gyro empty 0 -11 0 12 #a2d6c2 #000000 #000000 0 1;
#X obj 867 208 tgl 21 0 empty sens_mag empty 0 -11 0 12 #a2d6c2 #000000 #000000 0 1;
#X obj 786 183 tgl 21 0 empty empty empty 0 -11 0 12 #a2d6c2 #000000 #000000 0 1;
#X obj 786 209 tgl 21 0 empty empty empty 0 -11 0 12 #a2d6c2 #000000 #000000 0 1;
#X text 809 182 light;
#X text 809 208 temp;
#X msg 1046 219;
#X msg 1046 250;
#X msg 1046 281;
#X obj 960 219 s dev05;
#X obj 960 250 s dev06;
#X obj 960 281 s dev07;
#X text 788 242 euler;
#X text 813 292 quat;
#X text 839 242 grav;
#X text 857 292 linacc;
#X obj 1022 338 tgl 21 0 empty empty empty 0 -11 0 12 #e6a0a0 #000000 #000000 0 1;
#X text 806 337 RDY;
#X text 1045 337 ble;
#X obj 1091 338 tgl 21 0 empty empty empty 0 -11 0 12 #e6a0a0 #000000 #000000 0 1;
#X text 1114 337 dev;
#X obj 945 338 tgl 21 0 empty empty empty 0 -11 0 12 #e6a0a0 #000000 #000000 0 1;
#X text 968 337 conf;
#X obj 853 330 bng 35 250 50 0 rdy empty empty 17 7 0 10 #e6a0a0 #5a5a5a #5a5a5a;
#X obj 1022 60 r rdy, f 6;
#X msg 1046 93 EC:47:49:CF:53:C4;
#X obj 229 232 symbol;
#X obj 238 157 s msg;
#X obj 167 232 r msg;
#X obj 332 256 route sym;
#X obj 380 232 symbol;
#X obj 318 232 r msg;
#X obj 485 256 route sym;
#X obj 533 232 symbol;
#X obj 471 232 r msg;
#X obj 181 642 route sym;
#X obj 229 618 symbol;
#X obj 167 618 r msg;
#X obj 332 642 route sym;
#X obj 380 618 symbol;
#X obj 318 618 r msg;
#X obj 485 642 route sym;
#X obj 533 618 symbol;
#X obj 471 618 r msg;
#X obj 28 642 route sym;
#X obj 76 618 symbol;
#X obj 14 618 r msg;
#X obj 380 208 r dev02;
#X obj 533 208 r dev03;
#X obj 76 594 r dev04;
#X obj 229 594 r dev05;
#X obj 380 594 r dev06;
#X obj 533 594 r dev07;
#X msg 1046 124 E0:2D:64:47:02:F5;
#X obj 1194 46 cnv 15 170 326 empty empty empty 20 12 0 14 #e1bce6 #5a5a5a 0;
#X text 1228 59 CTRL, f 6;
#X text 1210 225 smooth, f 12;
#X text 1213 91 coordinate, f 11;
#X text 1213 159 spatialize, f 11;
#X text 1208 293 drift, f 12;
#X obj 1216 119 hsl 121 20 0 127 0 0 empty empty empty -2 -8 0 10 #e1bce6 #5a5a5a #5a5a5a 0 1;
#X obj 1216 187 hsl 121 20 0 127 0 0 empty empty empty -2 -8 0 10 #e1bce6 #5a5a5a #5a5a5a 0 1;
#X obj 1216 256 hsl 121 20 0 127 0 0 empty empty empty -2 -8 0 10 #e1bce6 #5a5a5a #5a5a5a 0 1;
#X obj 1216 322 hsl 121 20 0 127 0 0 empty empty empty -2 -8 0 10 #e1bce6 #5a5a5a #5a5a5a 0 1;
#X msg -43 156 EC:47:49:CF:53:C4 /acc 1.5 2.5 3.5;
#X msg -43 192 E0:2D:64:47:02:F5 /light 1.5 2.5 3.5;
#X obj -26 281 display;
#X obj -38 260 display;
#X obj -44 313 display;
#X obj -30 331 display;
#X obj 181 322 parse_primary;
#X obj 181 427 parse_fusion;
#X obj 793 268 hradio 23 1 1 5 sensor_fusion empty empty 0 -8 0 10 #a2d6c2 #5a5a5a #5a5a5a 4;
#X obj 246 404 r sensor_fusion;
#X text 890 242 off;
#X connect 2 0 51 0;
#X connect 3 0 91 0;
#X connect 3 1 90 0;
#X connect 8 0 12 0;
#X connect 9 0 13 0;
#X connect 14 0 50 0;
#X connect 18 0 19 0;
#X connect 20 0 2 0;
#X connect 30 0 33 0;
#X connect 31 0 34 0;
#X connect 32 0 35 0;
#X connect 48 0 31 0;
#X connect 48 0 32 0;
#X connect 48 0 30 0;
#X connect 48 0 9 0;
#X connect 48 0 8 0;
#X connect 48 0 77 0;
#X connect 48 0 49 0;
#X connect 48 0 18 0;
#X connect 49 0 10 0;
#X connect 50 0 3 1;
#X connect 52 0 3 0;
#X connect 53 0 92 0;
#X connect 53 1 93 0;
#X connect 54 0 53 1;
#X connect 55 0 53 0;
#X connect 57 0 56 1;
#X connect 58 0 56 0;
#X connect 60 0 59 1;
#X connect 61 0 59 0;
#X connect 63 0 62 1;
#X connect 64 0 62 0;
#X connect 66 0 65 1;
#X connect 67 0 65 0;
#X connect 69 0 68 1;
#X connect 70 0 68 0;
#X connect 71 0 54 0;
#X connect 72 0 57 0;
#X connect 73 0 69 0;
#X connect 74 0 60 0;
#X connect 75 0 63 0;
#X connect 76 0 66 0;
#X connect 77 0 11 0;
#X connect 88 0 3 0;
#X connect 88 0 53 0;
#X connect 89 0 3 0;
#X connect 89 0 53 0;
#X connect 97 0 95 1;
