#N canvas 827 239 527 327 12;
#X obj 555 48 inlet;
#X text 555 19 port;
#X msg 555 77 listen \$1;
#X obj 555 106 netreceive -u -b;
#X obj 555 135 oscparse;
#X obj 555 164 outlet;
#X text 555 199 messages;
#X connect 0 0 2 0;
#X connect 2 0 3 0;
#X connect 3 0 4 0;
#X connect 4 0 5 0;
