#N canvas 827 239 527 327 12;
#X obj 166 87 netreceive -u -b 12345;
#X obj 166 123 oscparse;
#X listbox 166 160 34 0 0 0 - - - 0;
#X msg 166 50 listen 12345;
#X obj 166 195 unpack s s s f f f;
#X floatatom 354 243 12 0 0 0 - - - 16;
#X floatatom 260 243 12 0 0 0 - - - 16;
#X floatatom 165 243 12 0 0 0 - - - 16;
#X obj 176 494 *~ 0.25;
#X obj 177 564 dac~;
#X obj 177 421 osc~;
#X obj 177 286 abs;
#X obj 262 286 abs;
#X obj 364 286 abs;
#X obj 262 353 * 2;
#X obj 262 421 osc~;
#X obj 364 421 osc~;
#X obj 364 353 * 4;
#X obj 262 455 *~ 0.75;
#X obj 365 455 *~ 0.5;
#X obj 177 323 * 440;
#X obj 262 323 * 440;
#X obj 364 323 * 440;
#X connect 0 0 1 0;
#X connect 1 0 2 0;
#X connect 1 0 4 0;
#X connect 3 0 0 0;
#X connect 4 3 7 0;
#X connect 4 4 6 0;
#X connect 4 5 5 0;
#X connect 5 0 13 0;
#X connect 6 0 12 0;
#X connect 7 0 11 0;
#X connect 10 0 8 0;
#X connect 11 0 20 0;
#X connect 12 0 21 0;
#X connect 13 0 22 0;
#X connect 14 0 15 0;
#X connect 15 0 18 0;
#X connect 16 0 19 0;
#X connect 17 0 16 0;
#X connect 18 0 8 0;
#X connect 19 0 8 0;
#X connect 20 0 10 0;
#X connect 21 0 14 0;
#X connect 22 0 17 0;
