#N canvas 827 239 527 327 12;
#X obj 94 88 inlet;
#X text 150 63 port;
#X obj 150 88 inlet;
#X text 94 63 ip;
#X obj 94 203 sprintf connect %s %s;
#X obj 216 88 inlet;
#X text 216 63 message;
#X obj 94 252 else/osc.send;
#X obj 94 281 outlet;
#X text 94 309 status;
#X obj 41 144 route disconnect;
#X msg 25 97 disconnect;
#X connect 0 0 10 0;
#X connect 2 0 4 1;
#X connect 4 0 7 0;
#X connect 5 0 7 0;
#X connect 7 0 8 0;
#X connect 10 0 7 0;
#X connect 10 1 4 0;
#X connect 11 0 10 0;
