#N canvas 827 239 527 327 12;
#X obj 239 141 inlet;
#X text 239 117 message stream;
#X obj 239 228 osc.route /acc;
#X obj 313 257 osc.route /gyro;
#X obj 239 303 unpack f f f;
#X obj 392 286 osc.route /mag;
#X obj 202 436 outlet;
#X obj 247 436 outlet;
#X obj 293 436 outlet;
#X obj 313 335 unpack f f f;
#X obj 352 436 outlet;
#X obj 399 436 outlet;
#X obj 446 436 outlet;
#X obj 392 363 unpack f f f;
#X obj 504 436 outlet;
#X obj 551 436 outlet;
#X obj 597 436 outlet;
#X obj 656 436 outlet;
#X connect 0 0 2 0;
#X connect 2 0 4 0;
#X connect 2 1 3 0;
#X connect 3 0 9 0;
#X connect 3 1 5 0;
#X connect 4 0 6 0;
#X connect 4 1 7 0;
#X connect 4 2 8 0;
#X connect 5 0 13 0;
#X connect 5 1 17 0;
#X connect 9 0 10 0;
#X connect 9 1 11 0;
#X connect 9 2 12 0;
#X connect 13 0 14 0;
#X connect 13 1 15 0;
#X connect 13 2 16 0;
