#N canvas 827 239 527 327 12;
#X obj 969 388 outlet;
#X obj 563 620 unpack f f f f;
#X obj 563 674 outlet;
#X obj 620 674 outlet;
#X obj 677 674 outlet;
#X text 848 221 sensor fusion mode;
#X obj 847 245 inlet;
#X obj 563 363 router 5 5;
#X obj 734 674 outlet;
#X obj 563 245 inlet;
#X text 563 221 message stream;
#X text 969 412 debug outlet;
#X obj 563 448 route euler;
#X obj 642 476 route quat;
#X obj 720 507 route grav;
#X obj 799 539 route linacc;
#X connect 1 0 2 0;
#X connect 1 1 3 0;
#X connect 1 2 4 0;
#X connect 1 3 8 0;
#X connect 6 0 7 1;
#X connect 7 0 12 0;
#X connect 7 1 13 0;
#X connect 7 2 14 0;
#X connect 7 3 15 0;
#X connect 7 4 0 0;
#X connect 9 0 7 0;
#X connect 12 0 1 0;
#X connect 12 1 0 0;
#X connect 13 0 1 0;
#X connect 13 1 0 0;
#X connect 14 0 1 0;
#X connect 14 1 0 0;
#X connect 15 0 1 0;
#X connect 15 1 0 0;
