#N canvas 827 239 527 327 12;
#X obj 563 448 osc.route /euler;
#X obj 642 476 osc.route /quat;
#X obj 720 507 osc.route /grav;
#X obj 799 539 osc.route /linacc;
#X obj 969 388 outlet;
#X obj 563 620 unpack f f f f;
#X obj 563 674 outlet;
#X obj 620 674 outlet;
#X obj 677 674 outlet;
#X text 848 221 sensor fusion mode;
#X obj 847 245 inlet;
#X obj 563 363 router 5 5;
#X obj 734 674 outlet;
#X obj 563 245 inlet;
#X text 563 221 message stream;
#X text 969 412 debug outlet;
#X obj 847 274 + 1;
#X connect 0 0 5 0;
#X connect 0 1 4 0;
#X connect 1 0 5 0;
#X connect 1 1 4 0;
#X connect 2 0 5 0;
#X connect 2 1 4 0;
#X connect 3 0 5 0;
#X connect 3 1 4 0;
#X connect 5 0 6 0;
#X connect 5 1 7 0;
#X connect 5 2 8 0;
#X connect 5 3 12 0;
#X connect 10 0 16 0;
#X connect 11 0 0 0;
#X connect 11 1 1 0;
#X connect 11 2 2 0;
#X connect 11 3 3 0;
#X connect 11 4 4 0;
#X connect 13 0 11 0;
#X connect 16 0 11 1;
