#N canvas 827 239 527 327 12;
#X text 443 71 sensor fusion mode;
#X obj 442 95 inlet;
#X obj 158 95 inlet;
#X text 158 71 message stream;
#X obj 295 95 inlet;
#X text 295 71 device address;
#X obj 295 124 symbol;
#X obj 158 199 parse_fusion;
#X connect 1 0 7 2;
#X connect 2 0 7 0;
#X connect 4 0 6 0;
#X connect 6 0 7 1;
