#N canvas 827 239 527 327 12;
#X obj 215 150 inlet;
#X text 215 126 message stream;
#X obj 215 205 osc.route /light;
#X obj 293 235 osc.route /temp;
#X obj 215 366 outlet;
#X obj 215 285 unpack f;
#X obj 293 366 outlet;
#X obj 293 285 unpack f;
#X obj 376 387 outlet;
#X connect 0 0 2 0;
#X connect 2 0 5 0;
#X connect 2 1 3 0;
#X connect 3 0 7 0;
#X connect 3 1 8 0;
#X connect 5 0 4 0;
#X connect 7 0 6 0;
