#N canvas 827 239 527 327 12;
#X obj 239 141 inlet;
#X text 239 117 message stream;
#X obj 239 303 unpack f f f;
#X obj 202 436 outlet;
#X obj 247 436 outlet;
#X obj 293 436 outlet;
#X obj 313 335 unpack f f f;
#X obj 352 436 outlet;
#X obj 399 436 outlet;
#X obj 446 436 outlet;
#X obj 392 363 unpack f f f;
#X obj 504 436 outlet;
#X obj 551 436 outlet;
#X obj 597 436 outlet;
#X obj 656 436 outlet;
#X obj 313 257 route gyro;
#X obj 392 286 route mag;
#X obj 239 228 route acc;
#X connect 0 0 17 0;
#X connect 2 0 3 0;
#X connect 2 1 4 0;
#X connect 2 2 5 0;
#X connect 6 0 7 0;
#X connect 6 1 8 0;
#X connect 6 2 9 0;
#X connect 10 0 11 0;
#X connect 10 1 12 0;
#X connect 10 2 13 0;
#X connect 15 0 6 0;
#X connect 15 1 16 0;
#X connect 16 0 10 0;
#X connect 16 1 14 0;
#X connect 17 0 2 0;
#X connect 17 1 15 0;
