#N canvas 827 239 527 327 12;
#X text 443 71 sensor fusion mode;
#X obj 442 95 inlet;
#X obj 158 95 inlet;
#X text 158 71 message stream;
#X obj 295 95 inlet;
#X text 295 71 device address;
#X obj 295 124 symbol;
#X obj 158 182 route sym;
#X obj 223 266 parse_primary;
#X obj 158 228 parse_fusion;
#X obj 378 308 parse_secondary;
#X obj -203 453 outlet;
#X obj 7 453 outlet;
#X obj 52 453 outlet;
#X obj 98 453 outlet;
#X obj 157 453 outlet;
#X obj 204 453 outlet;
#X obj 251 453 outlet;
#X obj 309 453 outlet;
#X obj 356 453 outlet;
#X obj 402 453 outlet;
#X obj -156 453 outlet;
#X obj -111 453 outlet;
#X obj -65 453 outlet;
#X obj 492 453 outlet;
#X obj 538 453 outlet;
#X obj 611 453 outlet;
#X connect 1 0 9 1;
#X connect 2 0 7 0;
#X connect 4 0 6 0;
#X connect 6 0 7 1;
#X connect 7 0 9 0;
#X connect 8 0 12 0;
#X connect 8 1 13 0;
#X connect 8 2 14 0;
#X connect 8 3 15 0;
#X connect 8 4 16 0;
#X connect 8 5 17 0;
#X connect 8 6 18 0;
#X connect 8 7 19 0;
#X connect 8 8 20 0;
#X connect 8 9 10 0;
#X connect 9 0 11 0;
#X connect 9 1 21 0;
#X connect 9 2 22 0;
#X connect 9 3 23 0;
#X connect 9 4 8 0;
#X connect 10 0 24 0;
#X connect 10 1 25 0;
#X connect 10 2 26 0;
