#N canvas 827 239 527 327 12;
#X obj 169 113 inlet;
#X obj 169 177 route float;
#X obj 288 113 inlet;
#X text 169 87 values;
#X obj 169 359 cyclone/peak;
#X text 288 87 peak hold (ms);
#X text 433 87 peak decay (ms);
#X obj 433 113 inlet;
#X obj 140 267 vsl 30 70 0 127 0 0 empty empty empty 0 -9 0 10 #191919 #ffffff #ffffff 0 1;
#X obj 140 415 vsl 30 70 0 127 0 0 empty empty empty 0 -9 0 10 #191919 #ffffff #ffffff 0 1;
#X obj 238 400 tgl 25 0 empty empty empty 17 7 0 10 #191919 #ffffff #ffffff 0 1;
#X obj 203 440 spigot;
#X obj 392 373 bng 25 250 50 0 empty empty empty 17 7 0 10 #191919 #ffffff #ffffff;
#X obj 392 415 delay;
#X obj 169 489 spigot;
#X msg 427 373 1000;
#X msg 376 481 0 2000;
#X obj 392 445 bng 25 250 50 0 empty empty empty 17 7 0 10 #191919 #ffffff #ffffff;
#X msg 469 481 100 2000;
#X text 477 791 each bang resets delay;
#X text 477 814 (if it keeps banging it won't output bang);
#X obj 140 550 vsl 30 70 0 127 0 0 empty empty empty 0 -9 0 10 #191919 #ffffff #ffffff 0 1;
#X obj 392 514 line 0 20;
#X obj 238 267 bng 25 250 50 0 empty empty empty 17 7 0 10 #191919 #ffffff #ffffff;
#X floatatom 238 301 5 0 0 0 - - - 12;
#X text 267 266 reset;
#X text 70 266 control;
#X text 36 414 current peak;
#X text 267 399 peak;
#X text 73 549 output;
#X text 392 334 hold and ramp down;
#X obj 85 359 tgl 25 0 empty empty empty 17 7 0 10 #191919 #ffffff #ffffff 0 1;
#X obj 296 326 moses 0;
#X obj 239 492 display;
#X msg 339 359 0;
#X connect 0 0 1 0;
#X connect 1 0 4 0;
#X connect 4 0 14 0;
#X connect 4 0 9 0;
#X connect 4 1 11 0;
#X connect 4 1 10 0;
#X connect 8 0 4 0;
#X connect 10 0 11 1;
#X connect 11 0 14 1;
#X connect 11 0 12 0;
#X connect 12 0 13 0;
#X connect 13 0 17 0;
#X connect 14 0 33 0;
#X connect 15 0 13 1;
#X connect 16 0 22 0;
#X connect 17 0 16 0;
#X connect 18 0 22 0;
#X connect 22 0 21 0;
#X connect 23 0 24 0;
#X connect 24 0 4 1;
#X connect 24 0 32 0;
#X connect 32 1 34 0;
#X connect 33 0 22 0;
#X connect 34 0 11 1;
