#N canvas 827 239 527 327 12;
#X obj 274 154 vsl 34 67 0 2 0 0 empty empty empty 0 -9 0 10 #191919 #ffffff #ffffff 0 1;
#X obj 271 314 t b f;
#X floatatom 158 401 5 0 0 0 - - - 12;
#X obj 158 370 counter 0 2000;
#X obj 187 316 bng 25 250 50 0 empty empty empty 17 7 0 10 #191919 #ffffff #ffffff;
#X text 78 325 reset counter;
#X text 449 -61 control value;
#X obj 458 353 array max;
#X text 612 443 current peak;
#X obj 576 444 f 0;
#X msg 555 136 0;
#X obj 511 404 >;
#X obj 458 404 max;
#X obj 511 490 moses 0.5;
#X obj 511 538 bng 25 250 50 0 empty empty empty 17 7 0 10 #191919 #ffffff #ffffff;
#X text 468 574 not new peak;
#X obj 562 538 bng 25 250 50 0 empty empty empty 17 7 0 10 #191919 #ffffff #ffffff;
#X obj 562 615 s newpeak;
#X obj 187 119 r newpeak;
#X obj 224 564 array size;
#X obj 160 640 moses 0.5;
#X obj 228 594 display;
#X obj 224 529 bng 25 250 50 0 empty empty empty 17 7 0 10 #191919 #ffffff #ffffff;
#X obj 271 529 symbol;
#X obj 160 602 >=;
#X obj 645 7 vsl 31 67 10 10000 0 0 empty empty empty 0 -9 0 10 #191919 #ffffff #ffffff 0 1;
#X text 688 -61 hold time (ms);
#X obj 854 7 vsl 32 67 100 10000 0 0 empty empty empty 0 -9 0 10 #191919 #ffffff #ffffff 0 1;
#X obj 554 7 bng 25 250 50 0 empty empty empty 17 7 0 10 #191919 #ffffff #ffffff;
#X text 491 6 reset all;
#X text 247 640 end of counter reached;
#X obj 554 41 s rdy;
#X obj 507 240 r rdy;
#X obj 271 456 r rdy;
#X text 576 574 new peak;
#N canvas 0 0 450 250 (subpatch) 0;
#X array \$0-vals 1000 float 2;
#X coords 0 127 1000 0 200 140 1;
#X restore 466 656 graph;
#X obj 679 657 vsl 36 138 0 2 0 0 empty empty empty 0 -9 0 10 #191919 #ffffff #ffffff 0 1;
#X obj 199 690 bng 25 250 50 0 empty empty empty 17 7 0 10 #191919 #ffffff #ffffff;
#X text 781 655 current peak output;
#X obj 731 656 vsl 36 138 0 2 0 0 empty empty empty 0 -9 0 10 #191919 #ffffff #ffffff 0 1;
#X obj 199 724 s end_counter;
#X obj 78 119 r end_counter;
#X obj 303 353 s control_value;
#X obj 160 669 bng 25 250 50 0 empty empty empty 17 7 0 10 #191919 #ffffff #ffffff;
#X msg 591 136 1;
#X obj 1122 173 r newpeak;
#X obj 1049 355 vradio 30 1 0 3 empty empty empty 0 -8 0 10 #191919 #ffffff #ffffff 0;
#X msg 1052 258 1;
#X msg 1065 289 2;
#X text 1083 390 hold;
#X text 1083 422 decay;
#X text 1158 354 output:;
#X text 1158 422 peak line 0;
#X text 1157 390 peak value;
#X text 745 369 reset peak value;
#X obj 891 580 line 0 100;
#X obj 688 370 spigot;
#X obj 612 370 metro 100;
#X obj 642 317 r decaying;
#X obj 1174 271 s decay;
#X obj 640 493 spigot;
#X obj 666 471 r holding;
#X obj 899 342 s holding;
#X obj 944 314 s decaying;
#X obj 899 249 decode 2;
#X obj 899 283 tgl 25 0 empty empty empty 17 7 0 10 #191919 #ffffff #ffffff 0 1;
#X obj 944 283 tgl 25 0 empty empty empty 17 7 0 10 #191919 #ffffff #ffffff 0 1;
#X obj 899 218 - 1;
#X obj 640 551 line 0 20;
#X obj 891 462 f 0;
#X obj 891 401 r decay;
#X obj 1122 333 s decayed;
#X obj 816 431 r decayed;
#X msg 640 520 set \$1 \, \$1 100;
#X obj 981 629 switch 2;
#X text -2 -130 Patch behavior: Control values enter the patch. If a new peak is reached \, that peak will be stored and maintained for a specified time (hold). Once the time is up \, the peak descends to zero over time (decay). New peaks can always be set by the control value.;
#X obj 555 -23 lb;
#X text 890 -61 decay time (ms);
#X obj 407 -60 inlet;
#X obj 407 -33 routetype float bang;
#X obj 640 -60 inlet;
#X obj 849 -60 inlet;
#X obj 640 83 s hold_time;
#X obj 846 83 s decay_time;
#X obj 1271 218 r hold_time;
#X obj 1122 259 delay;
#X obj 1122 297 delay;
#X obj 1271 263 r decay_time;
#X msg 891 550 set \$1 \, 0 \$2, f 15;
#X obj 950 462 f 0;
#X obj 891 523 pack f f;
#X obj 950 491 t b f;
#X obj 950 427 r decay_time;
#X obj 728 803 outlet;
#X obj 291 477 f \$0;
#X msg 271 500 \$1-vals;
#X obj 284 423 tabwrite;
#X obj 507 269 f \$0;
#X msg 392 296 set \$1-vals;
#X msg 507 298 \$1-vals;
#X obj 507 327 symbol;
#X obj 78 154 f \$0;
#X msg 78 186 \; \$1-vals const 0, f 19;
#X obj 271 66 clip 0 1;
#X connect 0 0 1 0;
#X connect 1 0 3 0;
#X connect 1 0 7 0;
#X connect 1 1 42 0;
#X connect 1 1 96 0;
#X connect 2 0 24 0;
#X connect 2 0 96 1;
#X connect 3 0 2 0;
#X connect 4 0 3 2;
#X connect 7 0 11 0;
#X connect 7 0 12 0;
#X connect 9 0 11 1;
#X connect 9 0 12 1;
#X connect 9 0 36 0;
#X connect 9 0 60 0;
#X connect 9 0 69 1;
#X connect 10 0 9 0;
#X connect 10 0 0 0;
#X connect 10 0 66 0;
#X connect 11 0 13 0;
#X connect 12 0 9 0;
#X connect 13 0 14 0;
#X connect 13 1 16 0;
#X connect 16 0 17 0;
#X connect 18 0 4 0;
#X connect 18 0 101 0;
#X connect 19 0 21 0;
#X connect 19 0 24 1;
#X connect 20 0 43 0;
#X connect 20 1 3 2;
#X connect 20 1 37 0;
#X connect 22 0 19 0;
#X connect 23 0 19 1;
#X connect 24 0 20 0;
#X connect 25 0 82 0;
#X connect 27 0 83 0;
#X connect 28 0 10 0;
#X connect 28 0 27 0;
#X connect 28 0 25 0;
#X connect 28 0 31 0;
#X connect 28 0 44 0;
#X connect 28 0 101 0;
#X connect 32 0 97 0;
#X connect 33 0 22 0;
#X connect 33 0 94 0;
#X connect 37 0 40 0;
#X connect 39 0 93 0;
#X connect 41 0 101 0;
#X connect 44 0 67 1;
#X connect 44 0 65 0;
#X connect 45 0 47 0;
#X connect 45 0 85 0;
#X connect 46 0 74 0;
#X connect 47 0 46 0;
#X connect 47 0 67 0;
#X connect 48 0 46 0;
#X connect 48 0 67 0;
#X connect 55 0 56 0;
#X connect 55 0 74 2;
#X connect 56 0 9 0;
#X connect 58 0 57 0;
#X connect 58 0 56 1;
#X connect 60 0 73 0;
#X connect 61 0 60 1;
#X connect 64 0 65 0;
#X connect 64 1 66 0;
#X connect 65 0 62 0;
#X connect 66 0 63 0;
#X connect 67 0 64 0;
#X connect 68 0 74 1;
#X connect 69 0 90 0;
#X connect 70 0 69 0;
#X connect 72 0 69 0;
#X connect 73 0 68 0;
#X connect 74 0 39 0;
#X connect 76 0 28 0;
#X connect 78 0 79 0;
#X connect 79 0 103 0;
#X connect 79 1 28 0;
#X connect 80 0 25 0;
#X connect 81 0 27 0;
#X connect 84 0 85 1;
#X connect 85 0 48 0;
#X connect 85 0 59 0;
#X connect 85 0 86 0;
#X connect 86 0 47 0;
#X connect 86 0 71 0;
#X connect 87 0 86 1;
#X connect 88 0 55 0;
#X connect 89 0 91 0;
#X connect 90 0 88 0;
#X connect 91 0 90 0;
#X connect 91 1 90 1;
#X connect 92 0 89 0;
#X connect 94 0 95 0;
#X connect 95 0 23 0;
#X connect 97 0 98 0;
#X connect 97 0 99 0;
#X connect 98 0 96 0;
#X connect 99 0 100 0;
#X connect 100 0 7 2;
#X connect 101 0 102 0;
#X connect 103 0 0 0;
