#N canvas 827 239 527 327 12;
#X obj 272 297 route sym;
#X obj 321 144 symbol;
#X obj 197 176 netreceive -u -b;
#X msg 197 147 listen \$1;
#X obj 197 205 oscparse;
#X obj 197 235 list trim;
#X obj 197 262 route indicator;
#X obj 197 291 route conf;
#X obj 197 320 route dev;
#X obj 197 349 route ble;
#X obj 197 96 inlet;
#X text 92 95 listening port;
#X text 370 95 device address;
#X obj 321 96 inlet;
#X obj 228 456 outlet;
#X obj 277 456 outlet;
#X obj 326 456 outlet;
#X obj 139 456 outlet;
#X obj 387 456 outlet;
#X text 139 430 sensor data;
#X text 228 430 status checks;
#X text 387 430 unrouted;
#X text 227 487 config;
#X text 277 487 dev;
#X text 324 487 ble;
#X connect 0 0 17 0;
#X connect 0 1 18 0;
#X connect 1 0 0 1;
#X connect 2 0 4 0;
#X connect 3 0 2 0;
#X connect 4 0 5 0;
#X connect 5 0 6 0;
#X connect 6 0 7 0;
#X connect 6 1 0 0;
#X connect 7 0 14 0;
#X connect 7 1 8 0;
#X connect 8 0 15 0;
#X connect 8 1 9 0;
#X connect 9 0 16 0;
#X connect 10 0 3 0;
#X connect 13 0 1 0;
