#N canvas 827 239 527 327 12;
#X obj 312 545 cos~;
#X obj 261 545 sin~;
#X obj 336 485 phasor~;
#X obj 471 377 mtof;
#X obj 228 259 display;
#X obj 228 325 spigot;
#X obj 254 297 > 0;
#X obj 261 589 *~;
#X obj 312 589 *~;
#X obj 321 179 inlet;
#X text 235 80 trigger vector;
#X obj 261 676 outlet~;
#X obj 323 676 outlet~;
#X obj 471 179 inlet;
#X text 473 80 fundamental;
#X obj 560 179 inlet;
#X text 116 288 directional gain;
#X text 230 7 Spatial Trigger;
#X text 230 30 # Compute dot product between a vector (multi float message \, inlet 1) and the motion vector sent from the main patch;
#X obj 157 179 inlet;
#X text 76 80 moving vector;
#X obj 217 228 dot_product_scaled;
#X obj 105 179 inlet;
#X text 76 150 magnitude;
#X text 157 150 'v';
#X obj 560 208 unpack f f f f f;
#X obj 228 409 custom_adsr;
#X text 562 80 ADSHR;
#X obj 147 389 display;
#X obj 408 208 bng 25 250 50 0 empty empty empty 17 7 0 10 #191919 #ffffff #ffffff;
#X obj 228 376 peak_hold;
#X obj 682 179 inlet;
#X obj 682 208 unpack f f;
#X connect 0 0 8 0 32.................L..........C.........fA....;
#X connect 1 0 7 0 32.................L..........C.........fA....;
#X connect 2 0 0 0 32.................T....j9+++OE....o++++iB....;
#X connect 2 0 1 0 32.................P....b6+++OD....29+++iB....;
#X connect 3 0 2 0 32.................OA...n2++++S....58+++iE....;
#X connect 4 0 5 0 32.................g....P....PH....D....HD....;
#X connect 4 0 6 0 32.................I....3A...PB....d.....A....;
#X connect 5 0 30 0;
#X connect 6 0 5 1 32.................D..........A.........f.....;
#X connect 7 0 11 0 32.................d....T....fG....E....bE....;
#X connect 8 0 12 0 32.................c.....A...PG....P....bE....;
#X connect 9 0 21 2 32.................O.........vC.........zA....;
#X connect 13 0 3 0 32.................YA........PV.........HK....;
#X connect 13 0 29 0;
#X connect 15 0 25 0 32.................E.........PA.........j.....;
#X connect 19 0 21 1 32.................O.....G...vC....vA...zA....;
#X connect 21 0 4 0 32.................G....b....vA....G....v.....;
#X connect 22 0 21 0 32.................O.....G...vC....vA...zA....;
#X connect 25 0 26 1;
#X connect 25 1 26 2;
#X connect 25 2 26 3;
#X connect 25 3 26 4;
#X connect 25 4 26 5;
#X connect 26 0 7 1 32.................PA...vB....T....r.....J....;
#X connect 26 0 8 1 32.................EA...7E...PQ....eA....J....;
#X connect 29 0 30 0;
#X connect 30 0 26 0;
#X connect 30 0 28 0;
#X connect 31 0 32 0;
#X connect 32 0 30 1 32.................5A...Lk+++ud....S4+++SI....;
#X connect 32 1 30 2 32.................3....ri+++ON....63+++SI....;
