#N canvas 827 239 527 327 12;
#X msg 299 153 /stream 1;
#X msg 297 197 /start 1;
#X obj 438 153 osc_netreceive;
#X obj 438 182 display;
#X msg 426 90 8001;
#X obj 135 212 tgl 25 0 empty empty empty 17 7 0 10 #e3dfd9 #5a5a5a #5a5a5a 0 1;
#X msg 80 97 disconnect;
#X obj 135 172 else/osc.send;
#X msg 203 72 connect 127.0.0.1 8001;
#X obj 171 332 osc.send;
#X msg 127 36 connect 192.168.4.100 8001;
#X connect 0 0 7 0;
#X connect 1 0 7 0;
#X connect 2 0 3 0;
#X connect 4 0 2 0;
#X connect 6 0 7 0;
#X connect 7 0 5 0;
#X connect 8 0 7 0;
#X connect 10 0 7 0;
