#N canvas 827 239 527 327 12;
#X obj 226 229 display;
#X obj 228 326 display;
#X obj 197 397 unpack f f f;
#X floatatom 197 442 5 0 0 0 - - - 12;
#X floatatom 241 442 5 0 0 0 - - - 12;
#X floatatom 286 442 5 0 0 0 - - - 12;
#X obj 910 240 makefilename /%s;
#X obj 910 191 symbol;
#X obj 933 271 display;
#X obj 196 202 osc.route /XX:XX:XX:XX:XX:XX;
#X msg 196 162 /XX:XX:XX:XX:XX:XX/sense 1.5 2.5 3.5;
#X obj 196 300 osc.route /sense;
#X msg 909 326 \$1;
#X obj 933 360 display;
#X obj 514 271 display;
#X obj 524 346 display;
#X obj 493 417 unpack f f f;
#X floatatom 493 462 5 0 0 0 - - - 12;
#X floatatom 537 462 5 0 0 0 - - - 12;
#X floatatom 582 462 5 0 0 0 - - - 12;
#X msg 492 162 /XX:XX:XX:XX:XX:XX/sense 1.5 2.5 3.5;
#X obj 492 320 osc.route /sense;
#X msg 910 162 XX:XX:XX:XX:XX:XX;
#X text 910 135 variable setting;
#X obj 547 250 display;
#X obj 492 222 route sym;
#X text 198 135 hard coded osc.route;
#X text 494 135 variable route;
#X obj 910 549 symbol;
#X obj 522 587 display;
#X obj 524 684 display;
#X obj 493 755 unpack f f f;
#X floatatom 493 800 5 0 0 0 - - - 12;
#X floatatom 537 800 5 0 0 0 - - - 12;
#X floatatom 582 800 5 0 0 0 - - - 12;
#X obj 492 658 osc.route /sense;
#X msg 910 520 XX:XX:XX:XX:XX:XX;
#X text 910 493 variable setting;
#X obj 626 587 display;
#X obj 492 560 route sym;
#X text 494 493 variable route;
#X msg 492 520 XX:XX:XX:XX:XX:XX /sense 1.5 2.5 3.5;
#X msg 574 183 /XX:XX:XX:XX:XX:XX 1.5 2.5 3.5;
#X connect 2 0 3 0;
#X connect 2 1 4 0;
#X connect 2 2 5 0;
#X connect 6 0 8 0;
#X connect 6 0 12 0;
#X connect 6 0 25 1;
#X connect 7 0 6 0;
#X connect 9 0 0 0;
#X connect 9 0 11 0;
#X connect 10 0 9 0;
#X connect 11 0 2 0;
#X connect 11 0 1 0;
#X connect 12 0 13 0;
#X connect 16 0 17 0;
#X connect 16 1 18 0;
#X connect 16 2 19 0;
#X connect 20 0 25 0;
#X connect 21 0 16 0;
#X connect 21 0 15 0;
#X connect 22 0 7 0;
#X connect 25 0 14 0;
#X connect 25 0 21 0;
#X connect 25 1 24 0;
#X connect 28 0 39 1;
#X connect 31 0 32 0;
#X connect 31 1 33 0;
#X connect 31 2 34 0;
#X connect 35 0 31 0;
#X connect 35 0 30 0;
#X connect 36 0 28 0;
#X connect 39 0 35 0;
#X connect 39 0 29 0;
#X connect 39 1 38 0;
#X connect 41 0 39 0;
#X connect 42 0 25 0;
