#N canvas 827 239 527 327 12;
#X obj 471 106 display;
#X obj 217 177 expr sqrt(pow($f1 \, 2) + pow($f2 \, 2));
#X obj 221 207 display;
#X text 221 125 magnitude of v;
#X obj 467 138 unpack f f;
#X obj 342 259 /;
#X obj 408 258 /;
#X text 496 105 vector v;
#X obj 345 299 display;
#X obj 368 299 display;
#X obj 467 79 inlet;
#X obj 313 369 outlet;
#X obj 217 342 outlet;
#X text 313 400 normalized v components;
#X text 217 370 magnitude;
#X obj 345 329 pack f f;
#X connect 0 0 4 0;
#X connect 1 0 2 0;
#X connect 2 0 5 1;
#X connect 2 0 6 1;
#X connect 2 0 12 0;
#X connect 4 0 1 0 32.................J....bv+++uB....G7+++OA....;
#X connect 4 0 5 0 32.................v....P3+++OL....D9+++WF....;
#X connect 4 1 1 1 32.................J.....5+++uB....f9+++OA....;
#X connect 4 1 6 0 32.................1....T4+++uM....U9+++SF....;
#X connect 5 0 8 0 32.................K....7+++++B....+++++WA....;
#X connect 6 0 9 0 32.................L....P8+++OC....T++++aA....;
#X connect 8 0 15 0 32.................D....P.....A....D....f.....;
#X connect 9 0 15 1 32.................D....7.....A....O....f.....;
#X connect 10 0 0 0;
#X connect 15 0 11 0 32.................J....D9+++uB....g++++SA....;
