#N canvas 827 239 527 327 12;
#X obj 141 87 inlet;
#X obj 194 87 inlet;
#X obj 250 87 inlet;
#X obj 305 87 inlet;
#X obj 359 87 inlet;
#X obj 415 87 inlet;
#X obj 470 87 inlet;
#X obj 524 87 inlet;
#X obj 580 87 inlet;
#X obj 269 243 hradio 20 1 0 8 empty empty empty 0 -8 0 10 #e3dfd9 #5a5a5a #5a5a5a 0;
#X msg 649 167 58 60 62 64 65 67 69 71 72;
#X obj 649 196 unpack f f f f f f f f;
#X obj 141 200 log;
#X obj 60 153 loadbang;
#X obj 148 556 line;
#X obj 148 649 osc~;
#X obj 148 585 mtof;
#X obj 199 221 rint;
#X obj 233 270 display;
#X obj 71 -32 vsl 17 128 -1 1 0 0 empty empty empty 0 -9 0 10 #e3dfd9 #5a5a5a #5a5a5a 0 1;
#X obj 93 -32 vsl 17 128 -1 1 0 1 empty empty empty 0 -9 0 10 #e3dfd9 #5a5a5a #5a5a5a 6082 1;
#X obj 109 -32 vsl 17 128 -1 1 0 0 empty empty empty 0 -9 0 10 #e3dfd9 #5a5a5a #5a5a5a 0 1;
#X msg 60 183 2;
#X obj 68 109 t b;
#X obj 141 153 expr 64*sqrt(pow($f1 \, 2) + pow($f2 \, 2) + pow($f3 \, 2));
#X obj 269 292 sel 0 1 2 3 4 5 6 7;
#X obj 275 390 i, f 5;
#X obj 314 386 i, f 5;
#X obj 349 386 i, f 5;
#X obj 381 387 i, f 5;
#X obj 415 384 i, f 5;
#X obj 450 384 i, f 5;
#X obj 485 384 i, f 5;
#X obj 521 383 i, f 5;
#X floatatom 277 438 4 0 0 0 - - - 16;
#X obj 272 498 makenote;
#X msg 338 460 100;
#X msg 386 456 1000;
#X obj 106 323 /;
#X msg 57 301 64;
#X msg 48 385 1;
#X obj 108 386 /;
#X obj 155 742 out~;
#X obj 37 435 display;
#X obj 103 253 bng 25 250 50 0 empty empty empty 17 7 0 10 #e3dfd9 #5a5a5a #5a5a5a;
#X floatatom 49 517 12 0 0 0 - - - 12;
#X obj 115 458 * 250;
#X connect 9 0 25 0;
#X connect 10 0 11 0;
#X connect 11 0 26 1;
#X connect 11 1 27 1;
#X connect 11 2 28 1;
#X connect 11 3 29 1;
#X connect 11 4 30 1;
#X connect 11 5 31 1;
#X connect 11 6 32 1;
#X connect 11 7 33 1;
#X connect 12 0 17 0;
#X connect 13 0 22 0;
#X connect 13 0 39 0;
#X connect 13 0 40 0;
#X connect 14 0 16 0;
#X connect 15 0 42 0;
#X connect 15 0 42 1;
#X connect 16 0 15 0;
#X connect 17 0 18 0;
#X connect 17 0 9 0;
#X connect 19 0 23 0;
#X connect 19 0 24 0;
#X connect 20 0 23 0;
#X connect 20 0 24 1;
#X connect 21 0 23 0;
#X connect 21 0 24 2;
#X connect 22 0 12 1;
#X connect 23 0 24 0;
#X connect 24 0 12 0;
#X connect 24 0 38 0;
#X connect 24 0 44 0;
#X connect 25 0 26 0;
#X connect 25 1 27 0;
#X connect 25 2 28 0;
#X connect 25 3 29 0;
#X connect 25 4 30 0;
#X connect 25 5 31 0;
#X connect 25 6 32 0;
#X connect 25 7 33 0;
#X connect 26 0 34 0;
#X connect 27 0 34 0;
#X connect 28 0 34 0;
#X connect 29 0 34 0;
#X connect 30 0 34 0;
#X connect 31 0 34 0;
#X connect 32 0 34 0;
#X connect 33 0 34 0;
#X connect 34 0 35 0;
#X connect 35 0 14 0;
#X connect 36 0 35 1;
#X connect 37 0 35 2;
#X connect 38 0 41 1;
#X connect 39 0 38 1;
#X connect 40 0 41 0;
#X connect 41 0 43 0;
#X connect 41 0 46 0;
#X connect 44 0 40 0;
#X connect 46 0 14 1;
#X connect 46 0 45 0;
